G04 (created by PCBNEW (2013-07-07 BZR 4022)-stable) date 2014.06.02. 15:10:32*
%MOIN*%
G04 Gerber Fmt 3.4, Leading zero omitted, Abs format*
%FSLAX34Y34*%
G01*
G70*
G90*
G04 APERTURE LIST*
%ADD10C,0.00590551*%
%ADD11C,0.00393701*%
%ADD12R,0.06X0.06*%
%ADD13C,0.06*%
%ADD14C,0.0393701*%
%ADD15C,0.0826772*%
%ADD16C,0.019685*%
%ADD17C,0.0787402*%
%ADD18R,0.055X0.055*%
%ADD19C,0.055*%
G04 APERTURE END LIST*
G54D10*
G54D11*
X4725Y-4724D02*
G75*
G03X4725Y-4724I0J0D01*
G74*
G01*
X4723Y-4724D02*
X4725Y-4724D01*
X4724Y-4723D02*
X4724Y-4725D01*
X4725Y-4724D02*
G75*
G03X4725Y-4724I0J0D01*
G74*
G01*
X4723Y-4724D02*
X4725Y-4724D01*
X4724Y-4723D02*
X4724Y-4725D01*
X4725Y-4724D02*
G75*
G03X4725Y-4724I0J0D01*
G74*
G01*
X4723Y-4724D02*
X4725Y-4724D01*
X4724Y-4723D02*
X4724Y-4725D01*
X4724Y-16929D02*
X4724Y-4724D01*
X24409Y-16929D02*
X4724Y-16929D01*
X24409Y-4724D02*
X24409Y-16929D01*
X4724Y-4724D02*
X24409Y-4724D01*
G54D12*
X14161Y-7086D03*
G54D13*
X14161Y-6086D03*
X15161Y-7086D03*
X15161Y-6086D03*
X16161Y-7086D03*
X16161Y-6086D03*
X17161Y-7086D03*
X17161Y-6086D03*
X18161Y-7086D03*
X18161Y-6086D03*
G54D12*
X14106Y-12900D03*
G54D13*
X14106Y-11900D03*
X15106Y-12900D03*
X15106Y-11900D03*
X16106Y-12900D03*
X16106Y-11900D03*
X17106Y-12900D03*
X17106Y-11900D03*
X18106Y-12900D03*
X18106Y-11900D03*
G54D12*
X20825Y-7118D03*
G54D13*
X20825Y-6118D03*
X21825Y-7118D03*
X21825Y-6118D03*
X22825Y-7118D03*
X22825Y-6118D03*
G54D12*
X20753Y-12828D03*
G54D13*
X20753Y-11828D03*
X21753Y-12828D03*
X21753Y-11828D03*
X22753Y-12828D03*
X22753Y-11828D03*
G54D14*
X14925Y-14804D03*
X15515Y-14804D03*
X16106Y-14804D03*
X16696Y-14804D03*
X17287Y-14804D03*
X17287Y-15395D03*
X16696Y-15395D03*
X16106Y-15395D03*
X15515Y-15395D03*
X14925Y-15395D03*
G54D15*
X13744Y-15100D03*
X18468Y-15100D03*
G54D14*
X11515Y-9055D03*
X11515Y-8464D03*
X11515Y-7874D03*
X11515Y-7283D03*
X11515Y-6692D03*
X12106Y-6692D03*
X12106Y-7283D03*
X12106Y-7874D03*
X12106Y-8464D03*
X12106Y-9055D03*
G54D15*
X11811Y-10236D03*
X11811Y-5511D03*
G54D16*
X14980Y-8653D03*
X15570Y-8653D03*
X16161Y-8653D03*
X16751Y-8653D03*
X17342Y-8653D03*
X17342Y-9244D03*
X16751Y-9244D03*
X16161Y-9244D03*
X15570Y-9244D03*
X14980Y-9244D03*
G54D17*
X18523Y-8948D03*
X13799Y-8948D03*
G54D14*
X21212Y-14883D03*
X21803Y-14883D03*
X22393Y-14883D03*
X22393Y-15474D03*
X21803Y-15474D03*
X21212Y-15474D03*
G54D15*
X19834Y-15178D03*
X23771Y-15178D03*
G54D14*
X11515Y-14370D03*
X11515Y-13779D03*
X11515Y-13188D03*
X12106Y-13188D03*
X12106Y-13779D03*
X12106Y-14370D03*
G54D15*
X11811Y-15748D03*
X11811Y-11811D03*
G54D16*
X21209Y-8654D03*
X21800Y-8654D03*
X22390Y-8654D03*
X22390Y-9245D03*
X21800Y-9245D03*
X21209Y-9245D03*
G54D17*
X19831Y-8950D03*
X23768Y-8950D03*
G54D18*
X5500Y-15500D03*
G54D19*
X5500Y-14500D03*
X5500Y-13500D03*
X5500Y-12500D03*
X5500Y-11500D03*
G54D18*
X9500Y-11500D03*
G54D19*
X9500Y-12500D03*
X9500Y-13500D03*
X9500Y-14500D03*
X9500Y-15500D03*
G54D18*
X5500Y-8500D03*
G54D19*
X5500Y-7500D03*
X5500Y-6500D03*
G54D18*
X9500Y-6500D03*
G54D19*
X9500Y-7500D03*
X9500Y-8500D03*
G54D16*
X7204Y-14681D03*
X7204Y-14090D03*
X7204Y-13500D03*
X7204Y-12909D03*
X7204Y-12318D03*
X7795Y-12318D03*
X7795Y-12909D03*
X7795Y-13500D03*
X7795Y-14090D03*
X7795Y-14681D03*
G54D17*
X7500Y-11137D03*
X7500Y-15862D03*
G54D16*
X7204Y-8090D03*
X7204Y-7500D03*
X7204Y-6909D03*
X7795Y-6909D03*
X7795Y-7500D03*
X7795Y-8090D03*
G54D17*
X7500Y-9468D03*
X7500Y-5531D03*
M02*
