M48
;DRILL file {Pcbnew (2013-07-07 BZR 4022)-stable} date 2014.06.02. 15:10:45
;FORMAT={-:-/ absolute / metric / decimal}
FMAT,2
METRIC,TZ
T1C0.635
T2C0.720
T3C0.813
T4C1.016
T5C1.900
T6C2.000
%
G90
G05
M71
T1
X38.751Y-22.86
X41.545Y-40.386
X41.672Y-22.86
X43.323Y-22.733
T2
X29.25Y-17.
X29.25Y-18.5
X29.25Y-20.
X29.25Y-21.5
X29.25Y-23.
X29.25Y-33.5
X29.25Y-35.
X29.25Y-36.5
X30.75Y-17.
X30.75Y-18.5
X30.75Y-20.
X30.75Y-21.5
X30.75Y-23.
X30.75Y-33.5
X30.75Y-35.
X30.75Y-36.5
X37.91Y-37.604
X37.91Y-39.104
X39.41Y-37.604
X39.41Y-39.104
X40.91Y-37.604
X40.91Y-39.104
X42.41Y-37.604
X42.41Y-39.104
X43.91Y-37.604
X43.91Y-39.104
X53.88Y-37.804
X53.88Y-39.304
X55.38Y-37.804
X55.38Y-39.304
X56.88Y-37.804
X56.88Y-39.304
T3
X13.97Y-16.51
X13.97Y-19.05
X13.97Y-21.59
X13.97Y-29.21
X13.97Y-31.75
X13.97Y-34.29
X13.97Y-36.83
X13.97Y-39.37
X24.13Y-16.51
X24.13Y-19.05
X24.13Y-21.59
X24.13Y-29.21
X24.13Y-31.75
X24.13Y-34.29
X24.13Y-36.83
X24.13Y-39.37
T4
X35.83Y-30.226
X35.83Y-32.766
X35.97Y-15.46
X35.97Y-18.
X38.37Y-30.226
X38.37Y-32.766
X38.51Y-15.46
X38.51Y-18.
X40.91Y-30.226
X40.91Y-32.766
X41.05Y-15.46
X41.05Y-18.
X43.45Y-30.226
X43.45Y-32.766
X43.59Y-15.46
X43.59Y-18.
X45.99Y-30.226
X45.99Y-32.766
X46.13Y-15.46
X46.13Y-18.
X52.713Y-30.045
X52.713Y-32.585
X52.898Y-15.542
X52.898Y-18.082
X55.253Y-30.045
X55.253Y-32.585
X55.438Y-15.542
X55.438Y-18.082
X57.793Y-30.045
X57.793Y-32.585
X57.978Y-15.542
X57.978Y-18.082
T5
X19.05Y-14.05
X19.05Y-24.05
X19.05Y-28.29
X19.05Y-40.29
X35.05Y-22.73
X47.05Y-22.73
X50.372Y-22.733
X60.372Y-22.733
T6
X30.Y-14.
X30.Y-26.
X30.Y-30.
X30.Y-40.
X34.91Y-38.354
X46.91Y-38.354
X50.38Y-38.554
X60.38Y-38.554
T0
M30
