G04 (created by PCBNEW (2013-07-07 BZR 4022)-stable) date 2014.06.02. 15:10:31*
%MOIN*%
G04 Gerber Fmt 3.4, Leading zero omitted, Abs format*
%FSLAX34Y34*%
G01*
G70*
G90*
G04 APERTURE LIST*
%ADD10C,0.00590551*%
%ADD11C,0.00393701*%
%ADD12R,0.06X0.06*%
%ADD13C,0.06*%
%ADD14C,0.0393701*%
%ADD15C,0.0826772*%
%ADD16C,0.0787402*%
%ADD17R,0.055X0.055*%
%ADD18C,0.055*%
%ADD19C,0.035*%
%ADD20C,0.01*%
G04 APERTURE END LIST*
G54D10*
G54D11*
X4725Y-4724D02*
G75*
G03X4725Y-4724I0J0D01*
G74*
G01*
X4723Y-4724D02*
X4725Y-4724D01*
X4724Y-4723D02*
X4724Y-4725D01*
X4725Y-4724D02*
G75*
G03X4725Y-4724I0J0D01*
G74*
G01*
X4723Y-4724D02*
X4725Y-4724D01*
X4724Y-4723D02*
X4724Y-4725D01*
X4725Y-4724D02*
G75*
G03X4725Y-4724I0J0D01*
G74*
G01*
X4723Y-4724D02*
X4725Y-4724D01*
X4724Y-4723D02*
X4724Y-4725D01*
X4724Y-16929D02*
X4724Y-4724D01*
X24409Y-16929D02*
X4724Y-16929D01*
X24409Y-4724D02*
X24409Y-16929D01*
X4724Y-4724D02*
X24409Y-4724D01*
G54D12*
X14161Y-7086D03*
G54D13*
X14161Y-6086D03*
X15161Y-7086D03*
X15161Y-6086D03*
X16161Y-7086D03*
X16161Y-6086D03*
X17161Y-7086D03*
X17161Y-6086D03*
X18161Y-7086D03*
X18161Y-6086D03*
G54D12*
X14106Y-12900D03*
G54D13*
X14106Y-11900D03*
X15106Y-12900D03*
X15106Y-11900D03*
X16106Y-12900D03*
X16106Y-11900D03*
X17106Y-12900D03*
X17106Y-11900D03*
X18106Y-12900D03*
X18106Y-11900D03*
G54D12*
X20825Y-7118D03*
G54D13*
X20825Y-6118D03*
X21825Y-7118D03*
X21825Y-6118D03*
X22825Y-7118D03*
X22825Y-6118D03*
G54D12*
X20753Y-12828D03*
G54D13*
X20753Y-11828D03*
X21753Y-12828D03*
X21753Y-11828D03*
X22753Y-12828D03*
X22753Y-11828D03*
G54D14*
X14925Y-14804D03*
X15515Y-14804D03*
X16106Y-14804D03*
X16696Y-14804D03*
X17287Y-14804D03*
X17287Y-15395D03*
X16696Y-15395D03*
X16106Y-15395D03*
X15515Y-15395D03*
X14925Y-15395D03*
G54D15*
X13744Y-15100D03*
X18468Y-15100D03*
G54D14*
X11515Y-9055D03*
X11515Y-8464D03*
X11515Y-7874D03*
X11515Y-7283D03*
X11515Y-6692D03*
X12106Y-6692D03*
X12106Y-7283D03*
X12106Y-7874D03*
X12106Y-8464D03*
X12106Y-9055D03*
G54D15*
X11811Y-10236D03*
X11811Y-5511D03*
G54D16*
X18523Y-8948D03*
X13799Y-8948D03*
G54D14*
X21212Y-14883D03*
X21803Y-14883D03*
X22393Y-14883D03*
X22393Y-15474D03*
X21803Y-15474D03*
X21212Y-15474D03*
G54D15*
X19834Y-15178D03*
X23771Y-15178D03*
G54D14*
X11515Y-14370D03*
X11515Y-13779D03*
X11515Y-13188D03*
X12106Y-13188D03*
X12106Y-13779D03*
X12106Y-14370D03*
G54D15*
X11811Y-15748D03*
X11811Y-11811D03*
G54D16*
X19831Y-8950D03*
X23768Y-8950D03*
G54D17*
X5500Y-15500D03*
G54D18*
X5500Y-14500D03*
X5500Y-13500D03*
X5500Y-12500D03*
X5500Y-11500D03*
G54D17*
X9500Y-11500D03*
G54D18*
X9500Y-12500D03*
X9500Y-13500D03*
X9500Y-14500D03*
X9500Y-15500D03*
G54D17*
X5500Y-8500D03*
G54D18*
X5500Y-7500D03*
X5500Y-6500D03*
G54D17*
X9500Y-6500D03*
G54D18*
X9500Y-7500D03*
X9500Y-8500D03*
G54D16*
X7500Y-11137D03*
X7500Y-15862D03*
X7500Y-9468D03*
X7500Y-5531D03*
G54D19*
X16356Y-15900D03*
X16406Y-9000D03*
X15256Y-9000D03*
X17056Y-8950D03*
G54D20*
X22753Y-11828D02*
X22753Y-11878D01*
X20703Y-14964D02*
X21212Y-15474D01*
X20703Y-14778D02*
X20703Y-14964D01*
X21103Y-14378D02*
X20703Y-14778D01*
X21603Y-14378D02*
X21103Y-14378D01*
X22253Y-13728D02*
X21603Y-14378D01*
X22253Y-12378D02*
X22253Y-13728D01*
X22753Y-11878D02*
X22253Y-12378D01*
X17106Y-11900D02*
X17106Y-12000D01*
X15601Y-15900D02*
X16106Y-15395D01*
X14706Y-15900D02*
X15601Y-15900D01*
X14406Y-15600D02*
X14706Y-15900D01*
X14406Y-14550D02*
X14406Y-15600D01*
X14656Y-14300D02*
X14406Y-14550D01*
X16206Y-14300D02*
X14656Y-14300D01*
X16606Y-13900D02*
X16206Y-14300D01*
X16606Y-12500D02*
X16606Y-13900D01*
X17106Y-12000D02*
X16606Y-12500D01*
X17856Y-13150D02*
X18106Y-12900D01*
X17856Y-15600D02*
X17856Y-13150D01*
X17556Y-15900D02*
X17856Y-15600D01*
X16356Y-15900D02*
X17556Y-15900D01*
X16656Y-6591D02*
X17161Y-6086D01*
X16656Y-8750D02*
X16656Y-6591D01*
X16406Y-9000D02*
X16656Y-8750D01*
X17624Y-5550D02*
X18161Y-6086D01*
X15856Y-5550D02*
X17624Y-5550D01*
X15656Y-5750D02*
X15856Y-5550D01*
X15656Y-8600D02*
X15656Y-5750D01*
X15256Y-9000D02*
X15656Y-8600D01*
X17161Y-8844D02*
X17161Y-7086D01*
X17056Y-8950D02*
X17161Y-8844D01*
G54D10*
G36*
X5274Y-7974D02*
X5175Y-7974D01*
X5083Y-8012D01*
X5013Y-8083D01*
X4994Y-8129D01*
X4994Y-7650D01*
X5054Y-7797D01*
X5202Y-7944D01*
X5274Y-7974D01*
X5274Y-7974D01*
G37*
G54D20*
X5274Y-7974D02*
X5175Y-7974D01*
X5083Y-8012D01*
X5013Y-8083D01*
X4994Y-8129D01*
X4994Y-7650D01*
X5054Y-7797D01*
X5202Y-7944D01*
X5274Y-7974D01*
G54D10*
G36*
X5274Y-14974D02*
X5175Y-14974D01*
X5083Y-15012D01*
X5013Y-15083D01*
X4994Y-15129D01*
X4994Y-14650D01*
X5054Y-14797D01*
X5202Y-14944D01*
X5274Y-14974D01*
X5274Y-14974D01*
G37*
G54D20*
X5274Y-14974D02*
X5175Y-14974D01*
X5083Y-15012D01*
X5013Y-15083D01*
X4994Y-15129D01*
X4994Y-14650D01*
X5054Y-14797D01*
X5202Y-14944D01*
X5274Y-14974D01*
G54D10*
G36*
X5335Y-7000D02*
X5203Y-7054D01*
X5055Y-7202D01*
X4994Y-7349D01*
X4994Y-6650D01*
X5054Y-6797D01*
X5202Y-6944D01*
X5335Y-7000D01*
X5335Y-7000D01*
G37*
G54D20*
X5335Y-7000D02*
X5203Y-7054D01*
X5055Y-7202D01*
X4994Y-7349D01*
X4994Y-6650D01*
X5054Y-6797D01*
X5202Y-6944D01*
X5335Y-7000D01*
G54D10*
G36*
X5335Y-12000D02*
X5203Y-12054D01*
X5055Y-12202D01*
X4994Y-12349D01*
X4994Y-11650D01*
X5054Y-11797D01*
X5202Y-11944D01*
X5335Y-12000D01*
X5335Y-12000D01*
G37*
G54D20*
X5335Y-12000D02*
X5203Y-12054D01*
X5055Y-12202D01*
X4994Y-12349D01*
X4994Y-11650D01*
X5054Y-11797D01*
X5202Y-11944D01*
X5335Y-12000D01*
G54D10*
G36*
X5335Y-13000D02*
X5203Y-13054D01*
X5055Y-13202D01*
X4994Y-13349D01*
X4994Y-12650D01*
X5054Y-12797D01*
X5202Y-12944D01*
X5335Y-13000D01*
X5335Y-13000D01*
G37*
G54D20*
X5335Y-13000D02*
X5203Y-13054D01*
X5055Y-13202D01*
X4994Y-13349D01*
X4994Y-12650D01*
X5054Y-12797D01*
X5202Y-12944D01*
X5335Y-13000D01*
G54D10*
G36*
X5335Y-14000D02*
X5203Y-14054D01*
X5055Y-14202D01*
X4994Y-14349D01*
X4994Y-13650D01*
X5054Y-13797D01*
X5202Y-13944D01*
X5335Y-14000D01*
X5335Y-14000D01*
G37*
G54D20*
X5335Y-14000D02*
X5203Y-14054D01*
X5055Y-14202D01*
X4994Y-14349D01*
X4994Y-13650D01*
X5054Y-13797D01*
X5202Y-13944D01*
X5335Y-14000D01*
G54D10*
G36*
X14876Y-12399D02*
X14795Y-12433D01*
X14656Y-12572D01*
X14656Y-12550D01*
X14618Y-12458D01*
X14548Y-12388D01*
X14456Y-12350D01*
X14433Y-12350D01*
X14572Y-12211D01*
X14606Y-12130D01*
X14639Y-12211D01*
X14794Y-12365D01*
X14876Y-12399D01*
X14876Y-12399D01*
G37*
G54D20*
X14876Y-12399D02*
X14795Y-12433D01*
X14656Y-12572D01*
X14656Y-12550D01*
X14618Y-12458D01*
X14548Y-12388D01*
X14456Y-12350D01*
X14433Y-12350D01*
X14572Y-12211D01*
X14606Y-12130D01*
X14639Y-12211D01*
X14794Y-12365D01*
X14876Y-12399D01*
G54D10*
G36*
X14931Y-6586D02*
X14850Y-6620D01*
X14711Y-6758D01*
X14711Y-6737D01*
X14673Y-6645D01*
X14603Y-6574D01*
X14511Y-6536D01*
X14489Y-6536D01*
X14627Y-6398D01*
X14661Y-6316D01*
X14694Y-6397D01*
X14849Y-6552D01*
X14931Y-6586D01*
X14931Y-6586D01*
G37*
G54D20*
X14931Y-6586D02*
X14850Y-6620D01*
X14711Y-6758D01*
X14711Y-6737D01*
X14673Y-6645D01*
X14603Y-6574D01*
X14511Y-6536D01*
X14489Y-6536D01*
X14627Y-6398D01*
X14661Y-6316D01*
X14694Y-6397D01*
X14849Y-6552D01*
X14931Y-6586D01*
G54D10*
G36*
X15876Y-12399D02*
X15795Y-12433D01*
X15640Y-12588D01*
X15606Y-12669D01*
X15572Y-12588D01*
X15418Y-12434D01*
X15336Y-12400D01*
X15417Y-12366D01*
X15572Y-12211D01*
X15606Y-12130D01*
X15639Y-12211D01*
X15794Y-12365D01*
X15876Y-12399D01*
X15876Y-12399D01*
G37*
G54D20*
X15876Y-12399D02*
X15795Y-12433D01*
X15640Y-12588D01*
X15606Y-12669D01*
X15572Y-12588D01*
X15418Y-12434D01*
X15336Y-12400D01*
X15417Y-12366D01*
X15572Y-12211D01*
X15606Y-12130D01*
X15639Y-12211D01*
X15794Y-12365D01*
X15876Y-12399D01*
G54D10*
G36*
X16664Y-5850D02*
X16661Y-5856D01*
X16658Y-5850D01*
X16664Y-5850D01*
X16664Y-5850D01*
G37*
G54D20*
X16664Y-5850D02*
X16661Y-5856D01*
X16658Y-5850D01*
X16664Y-5850D01*
G54D10*
G36*
X17556Y-14441D02*
X17540Y-14426D01*
X17376Y-14357D01*
X17198Y-14357D01*
X17034Y-14425D01*
X16992Y-14468D01*
X16950Y-14426D01*
X16786Y-14357D01*
X16608Y-14357D01*
X16547Y-14382D01*
X16818Y-14112D01*
X16818Y-14112D01*
X16883Y-14014D01*
X16906Y-13900D01*
X16906Y-13900D01*
X16906Y-13412D01*
X16996Y-13449D01*
X17215Y-13450D01*
X17417Y-13366D01*
X17556Y-13227D01*
X17556Y-14441D01*
X17556Y-14441D01*
G37*
G54D20*
X17556Y-14441D02*
X17540Y-14426D01*
X17376Y-14357D01*
X17198Y-14357D01*
X17034Y-14425D01*
X16992Y-14468D01*
X16950Y-14426D01*
X16786Y-14357D01*
X16608Y-14357D01*
X16547Y-14382D01*
X16818Y-14112D01*
X16818Y-14112D01*
X16883Y-14014D01*
X16906Y-13900D01*
X16906Y-13900D01*
X16906Y-13412D01*
X16996Y-13449D01*
X17215Y-13450D01*
X17417Y-13366D01*
X17556Y-13227D01*
X17556Y-14441D01*
G54D10*
G36*
X17876Y-12399D02*
X17795Y-12433D01*
X17640Y-12588D01*
X17606Y-12669D01*
X17572Y-12588D01*
X17418Y-12434D01*
X17336Y-12400D01*
X17417Y-12366D01*
X17572Y-12211D01*
X17606Y-12130D01*
X17639Y-12211D01*
X17794Y-12365D01*
X17876Y-12399D01*
X17876Y-12399D01*
G37*
G54D20*
X17876Y-12399D02*
X17795Y-12433D01*
X17640Y-12588D01*
X17606Y-12669D01*
X17572Y-12588D01*
X17418Y-12434D01*
X17336Y-12400D01*
X17417Y-12366D01*
X17572Y-12211D01*
X17606Y-12130D01*
X17639Y-12211D01*
X17794Y-12365D01*
X17876Y-12399D01*
G54D10*
G36*
X17931Y-6586D02*
X17850Y-6620D01*
X17695Y-6774D01*
X17661Y-6856D01*
X17627Y-6775D01*
X17473Y-6620D01*
X17391Y-6586D01*
X17472Y-6553D01*
X17627Y-6398D01*
X17661Y-6316D01*
X17694Y-6397D01*
X17849Y-6552D01*
X17931Y-6586D01*
X17931Y-6586D01*
G37*
G54D20*
X17931Y-6586D02*
X17850Y-6620D01*
X17695Y-6774D01*
X17661Y-6856D01*
X17627Y-6775D01*
X17473Y-6620D01*
X17391Y-6586D01*
X17472Y-6553D01*
X17627Y-6398D01*
X17661Y-6316D01*
X17694Y-6397D01*
X17849Y-6552D01*
X17931Y-6586D01*
G54D10*
G36*
X21523Y-12328D02*
X21442Y-12362D01*
X21303Y-12500D01*
X21303Y-12479D01*
X21265Y-12387D01*
X21194Y-12316D01*
X21103Y-12278D01*
X21080Y-12278D01*
X21219Y-12140D01*
X21253Y-12058D01*
X21286Y-12139D01*
X21441Y-12294D01*
X21523Y-12328D01*
X21523Y-12328D01*
G37*
G54D20*
X21523Y-12328D02*
X21442Y-12362D01*
X21303Y-12500D01*
X21303Y-12479D01*
X21265Y-12387D01*
X21194Y-12316D01*
X21103Y-12278D01*
X21080Y-12278D01*
X21219Y-12140D01*
X21253Y-12058D01*
X21286Y-12139D01*
X21441Y-12294D01*
X21523Y-12328D01*
G54D10*
G36*
X21595Y-6618D02*
X21514Y-6652D01*
X21376Y-6790D01*
X21376Y-6769D01*
X21338Y-6677D01*
X21267Y-6607D01*
X21175Y-6568D01*
X21153Y-6568D01*
X21291Y-6430D01*
X21325Y-6349D01*
X21359Y-6430D01*
X21514Y-6584D01*
X21595Y-6618D01*
X21595Y-6618D01*
G37*
G54D20*
X21595Y-6618D02*
X21514Y-6652D01*
X21376Y-6790D01*
X21376Y-6769D01*
X21338Y-6677D01*
X21267Y-6607D01*
X21175Y-6568D01*
X21153Y-6568D01*
X21291Y-6430D01*
X21325Y-6349D01*
X21359Y-6430D01*
X21514Y-6584D01*
X21595Y-6618D01*
G54D10*
G36*
X22595Y-6618D02*
X22514Y-6652D01*
X22359Y-6806D01*
X22326Y-6888D01*
X22292Y-6807D01*
X22137Y-6652D01*
X22056Y-6618D01*
X22137Y-6585D01*
X22291Y-6430D01*
X22325Y-6349D01*
X22359Y-6430D01*
X22514Y-6584D01*
X22595Y-6618D01*
X22595Y-6618D01*
G37*
G54D20*
X22595Y-6618D02*
X22514Y-6652D01*
X22359Y-6806D01*
X22326Y-6888D01*
X22292Y-6807D01*
X22137Y-6652D01*
X22056Y-6618D01*
X22137Y-6585D01*
X22291Y-6430D01*
X22325Y-6349D01*
X22359Y-6430D01*
X22514Y-6584D01*
X22595Y-6618D01*
G54D10*
G36*
X24139Y-16659D02*
X19136Y-16659D01*
X19136Y-15208D01*
X19131Y-15088D01*
X19132Y-14968D01*
X19127Y-14957D01*
X19126Y-14945D01*
X19043Y-14743D01*
X19038Y-14741D01*
X19031Y-14724D01*
X18844Y-14537D01*
X18826Y-14530D01*
X18824Y-14524D01*
X18712Y-14482D01*
X18601Y-14436D01*
X18588Y-14436D01*
X18577Y-14432D01*
X18457Y-14436D01*
X18337Y-14436D01*
X18325Y-14441D01*
X18313Y-14441D01*
X18156Y-14506D01*
X18156Y-13450D01*
X18215Y-13450D01*
X18417Y-13366D01*
X18572Y-13211D01*
X18656Y-13009D01*
X18656Y-12791D01*
X18572Y-12588D01*
X18418Y-12434D01*
X18336Y-12400D01*
X18417Y-12366D01*
X18572Y-12211D01*
X18656Y-12009D01*
X18656Y-11791D01*
X18572Y-11588D01*
X18418Y-11434D01*
X18216Y-11350D01*
X17997Y-11349D01*
X17795Y-11433D01*
X17640Y-11588D01*
X17606Y-11669D01*
X17572Y-11588D01*
X17418Y-11434D01*
X17216Y-11350D01*
X16997Y-11349D01*
X16795Y-11433D01*
X16640Y-11588D01*
X16606Y-11669D01*
X16572Y-11588D01*
X16418Y-11434D01*
X16216Y-11350D01*
X15997Y-11349D01*
X15795Y-11433D01*
X15640Y-11588D01*
X15606Y-11669D01*
X15572Y-11588D01*
X15418Y-11434D01*
X15216Y-11350D01*
X14997Y-11349D01*
X14795Y-11433D01*
X14640Y-11588D01*
X14606Y-11669D01*
X14572Y-11588D01*
X14447Y-11463D01*
X14447Y-9052D01*
X14442Y-8937D01*
X14443Y-8821D01*
X14438Y-8809D01*
X14437Y-8797D01*
X14358Y-8604D01*
X14352Y-8602D01*
X14345Y-8584D01*
X14164Y-8403D01*
X14145Y-8395D01*
X14143Y-8390D01*
X14034Y-8349D01*
X13927Y-8305D01*
X13915Y-8305D01*
X13903Y-8300D01*
X13787Y-8305D01*
X13671Y-8305D01*
X13660Y-8309D01*
X13647Y-8310D01*
X13455Y-8390D01*
X13453Y-8395D01*
X13435Y-8402D01*
X13253Y-8583D01*
X13246Y-8602D01*
X13240Y-8604D01*
X13200Y-8713D01*
X13155Y-8820D01*
X13155Y-8832D01*
X13151Y-8844D01*
X13155Y-8960D01*
X13155Y-9076D01*
X13160Y-9087D01*
X13160Y-9100D01*
X13240Y-9293D01*
X13245Y-9295D01*
X13253Y-9312D01*
X13434Y-9494D01*
X13452Y-9502D01*
X13455Y-9507D01*
X13563Y-9547D01*
X13670Y-9592D01*
X13683Y-9592D01*
X13695Y-9596D01*
X13810Y-9592D01*
X13926Y-9592D01*
X13938Y-9587D01*
X13950Y-9587D01*
X14143Y-9507D01*
X14145Y-9502D01*
X14163Y-9494D01*
X14344Y-9313D01*
X14352Y-9295D01*
X14358Y-9293D01*
X14398Y-9184D01*
X14442Y-9077D01*
X14442Y-9064D01*
X14447Y-9052D01*
X14447Y-11463D01*
X14418Y-11434D01*
X14216Y-11350D01*
X13997Y-11349D01*
X13795Y-11433D01*
X13640Y-11588D01*
X13556Y-11790D01*
X13556Y-12008D01*
X13639Y-12211D01*
X13778Y-12349D01*
X13756Y-12349D01*
X13664Y-12387D01*
X13594Y-12458D01*
X13556Y-12550D01*
X13556Y-12649D01*
X13556Y-13249D01*
X13594Y-13341D01*
X13664Y-13411D01*
X13756Y-13449D01*
X13855Y-13450D01*
X14455Y-13450D01*
X14547Y-13412D01*
X14618Y-13341D01*
X14656Y-13249D01*
X14656Y-13227D01*
X14794Y-13365D01*
X14996Y-13449D01*
X15215Y-13450D01*
X15417Y-13366D01*
X15572Y-13211D01*
X15606Y-13130D01*
X15639Y-13211D01*
X15794Y-13365D01*
X15996Y-13449D01*
X16215Y-13450D01*
X16306Y-13412D01*
X16306Y-13775D01*
X16082Y-14000D01*
X14656Y-14000D01*
X14541Y-14022D01*
X14444Y-14087D01*
X14194Y-14337D01*
X14129Y-14435D01*
X14109Y-14533D01*
X14102Y-14530D01*
X14100Y-14524D01*
X13987Y-14482D01*
X13876Y-14436D01*
X13864Y-14436D01*
X13852Y-14432D01*
X13732Y-14436D01*
X13612Y-14436D01*
X13601Y-14441D01*
X13589Y-14441D01*
X13388Y-14524D01*
X13386Y-14530D01*
X13368Y-14537D01*
X13182Y-14723D01*
X13174Y-14741D01*
X13168Y-14743D01*
X13126Y-14856D01*
X13080Y-14967D01*
X13080Y-14979D01*
X13076Y-14991D01*
X13080Y-15111D01*
X13080Y-15231D01*
X13085Y-15242D01*
X13085Y-15254D01*
X13168Y-15456D01*
X13174Y-15458D01*
X13181Y-15475D01*
X13367Y-15662D01*
X13385Y-15669D01*
X13388Y-15675D01*
X13500Y-15717D01*
X13611Y-15763D01*
X13623Y-15763D01*
X13635Y-15767D01*
X13755Y-15763D01*
X13875Y-15763D01*
X13886Y-15758D01*
X13898Y-15758D01*
X14100Y-15675D01*
X14102Y-15669D01*
X14118Y-15662D01*
X14129Y-15714D01*
X14194Y-15812D01*
X14494Y-16112D01*
X14494Y-16112D01*
X14591Y-16177D01*
X14706Y-16199D01*
X14706Y-16200D01*
X15601Y-16200D01*
X15601Y-16199D01*
X15716Y-16177D01*
X15716Y-16177D01*
X15813Y-16112D01*
X15934Y-15991D01*
X15995Y-16140D01*
X16115Y-16260D01*
X16271Y-16324D01*
X16440Y-16325D01*
X16596Y-16260D01*
X16657Y-16200D01*
X17556Y-16200D01*
X17556Y-16199D01*
X17671Y-16177D01*
X17671Y-16177D01*
X17768Y-16112D01*
X18068Y-15812D01*
X18068Y-15812D01*
X18133Y-15714D01*
X18139Y-15685D01*
X18225Y-15717D01*
X18335Y-15763D01*
X18348Y-15763D01*
X18359Y-15767D01*
X18479Y-15763D01*
X18599Y-15763D01*
X18611Y-15758D01*
X18623Y-15758D01*
X18824Y-15675D01*
X18826Y-15669D01*
X18843Y-15662D01*
X19030Y-15476D01*
X19038Y-15458D01*
X19043Y-15456D01*
X19085Y-15343D01*
X19131Y-15232D01*
X19131Y-15220D01*
X19136Y-15208D01*
X19136Y-16659D01*
X12558Y-16659D01*
X12558Y-14427D01*
X12553Y-14354D01*
X12553Y-14281D01*
X12546Y-14266D01*
X12545Y-14249D01*
X12502Y-14144D01*
X12496Y-14143D01*
X12485Y-14117D01*
X12442Y-14074D01*
X12484Y-14032D01*
X12495Y-14006D01*
X12502Y-14005D01*
X12525Y-13936D01*
X12553Y-13868D01*
X12553Y-13852D01*
X12558Y-13836D01*
X12553Y-13763D01*
X12553Y-13691D01*
X12546Y-13675D01*
X12545Y-13659D01*
X12502Y-13553D01*
X12496Y-13552D01*
X12485Y-13526D01*
X12442Y-13484D01*
X12484Y-13442D01*
X12495Y-13415D01*
X12502Y-13414D01*
X12525Y-13345D01*
X12553Y-13278D01*
X12553Y-13261D01*
X12558Y-13246D01*
X12558Y-9112D01*
X12553Y-9039D01*
X12553Y-8966D01*
X12546Y-8951D01*
X12545Y-8934D01*
X12502Y-8829D01*
X12496Y-8828D01*
X12485Y-8802D01*
X12442Y-8759D01*
X12484Y-8718D01*
X12495Y-8691D01*
X12502Y-8690D01*
X12525Y-8621D01*
X12553Y-8553D01*
X12553Y-8537D01*
X12558Y-8521D01*
X12553Y-8448D01*
X12553Y-8376D01*
X12546Y-8360D01*
X12545Y-8344D01*
X12502Y-8238D01*
X12496Y-8237D01*
X12485Y-8211D01*
X12442Y-8169D01*
X12484Y-8127D01*
X12495Y-8100D01*
X12502Y-8099D01*
X12525Y-8030D01*
X12553Y-7963D01*
X12553Y-7946D01*
X12558Y-7931D01*
X12553Y-7858D01*
X12553Y-7785D01*
X12546Y-7770D01*
X12545Y-7753D01*
X12502Y-7648D01*
X12496Y-7647D01*
X12485Y-7621D01*
X12442Y-7578D01*
X12484Y-7536D01*
X12495Y-7510D01*
X12502Y-7509D01*
X12525Y-7440D01*
X12553Y-7372D01*
X12553Y-7356D01*
X12558Y-7340D01*
X12553Y-7267D01*
X12553Y-7194D01*
X12546Y-7179D01*
X12545Y-7163D01*
X12502Y-7057D01*
X12496Y-7056D01*
X12485Y-7030D01*
X12442Y-6988D01*
X12484Y-6946D01*
X12495Y-6919D01*
X12502Y-6918D01*
X12525Y-6849D01*
X12553Y-6782D01*
X12553Y-6765D01*
X12558Y-6750D01*
X12553Y-6677D01*
X12553Y-6604D01*
X12546Y-6589D01*
X12545Y-6572D01*
X12502Y-6467D01*
X12496Y-6466D01*
X12485Y-6440D01*
X12359Y-6314D01*
X12333Y-6303D01*
X12332Y-6297D01*
X12262Y-6274D01*
X12195Y-6246D01*
X12179Y-6246D01*
X12163Y-6240D01*
X12090Y-6246D01*
X12017Y-6245D01*
X12002Y-6252D01*
X11986Y-6253D01*
X11880Y-6297D01*
X11879Y-6303D01*
X11853Y-6313D01*
X11811Y-6356D01*
X11769Y-6314D01*
X11742Y-6303D01*
X11741Y-6297D01*
X11672Y-6274D01*
X11605Y-6246D01*
X11588Y-6246D01*
X11572Y-6240D01*
X11500Y-6246D01*
X11427Y-6245D01*
X11411Y-6252D01*
X11395Y-6253D01*
X11290Y-6297D01*
X11288Y-6303D01*
X11262Y-6313D01*
X11137Y-6439D01*
X11126Y-6466D01*
X11119Y-6467D01*
X11096Y-6536D01*
X11068Y-6603D01*
X11068Y-6620D01*
X11063Y-6635D01*
X11068Y-6708D01*
X11068Y-6781D01*
X11075Y-6796D01*
X11076Y-6813D01*
X11119Y-6918D01*
X11125Y-6919D01*
X11136Y-6945D01*
X11179Y-6988D01*
X11137Y-7030D01*
X11126Y-7056D01*
X11119Y-7057D01*
X11096Y-7126D01*
X11068Y-7194D01*
X11068Y-7210D01*
X11063Y-7226D01*
X11068Y-7299D01*
X11068Y-7371D01*
X11075Y-7387D01*
X11076Y-7403D01*
X11119Y-7509D01*
X11125Y-7510D01*
X11136Y-7536D01*
X11179Y-7578D01*
X11137Y-7620D01*
X11126Y-7647D01*
X11119Y-7648D01*
X11096Y-7717D01*
X11068Y-7784D01*
X11068Y-7801D01*
X11063Y-7816D01*
X11068Y-7889D01*
X11068Y-7962D01*
X11075Y-7977D01*
X11076Y-7994D01*
X11119Y-8099D01*
X11125Y-8100D01*
X11136Y-8126D01*
X11179Y-8169D01*
X11137Y-8211D01*
X11126Y-8237D01*
X11119Y-8238D01*
X11096Y-8307D01*
X11068Y-8375D01*
X11068Y-8391D01*
X11063Y-8407D01*
X11068Y-8480D01*
X11068Y-8553D01*
X11075Y-8568D01*
X11076Y-8584D01*
X11119Y-8690D01*
X11125Y-8691D01*
X11136Y-8717D01*
X11179Y-8759D01*
X11137Y-8801D01*
X11126Y-8828D01*
X11119Y-8829D01*
X11096Y-8898D01*
X11068Y-8965D01*
X11068Y-8982D01*
X11063Y-8998D01*
X11068Y-9070D01*
X11068Y-9143D01*
X11075Y-9158D01*
X11076Y-9175D01*
X11119Y-9280D01*
X11125Y-9281D01*
X11136Y-9307D01*
X11262Y-9433D01*
X11288Y-9444D01*
X11290Y-9450D01*
X11359Y-9473D01*
X11426Y-9501D01*
X11442Y-9501D01*
X11458Y-9507D01*
X11531Y-9501D01*
X11604Y-9502D01*
X11619Y-9495D01*
X11635Y-9494D01*
X11741Y-9450D01*
X11742Y-9444D01*
X11768Y-9434D01*
X11810Y-9391D01*
X11852Y-9433D01*
X11879Y-9444D01*
X11880Y-9450D01*
X11949Y-9473D01*
X12017Y-9501D01*
X12033Y-9501D01*
X12049Y-9507D01*
X12121Y-9501D01*
X12194Y-9502D01*
X12210Y-9495D01*
X12226Y-9494D01*
X12332Y-9450D01*
X12333Y-9444D01*
X12359Y-9434D01*
X12484Y-9308D01*
X12495Y-9281D01*
X12502Y-9280D01*
X12525Y-9211D01*
X12553Y-9144D01*
X12553Y-9127D01*
X12558Y-9112D01*
X12558Y-13246D01*
X12553Y-13173D01*
X12553Y-13100D01*
X12546Y-13085D01*
X12545Y-13068D01*
X12502Y-12963D01*
X12496Y-12962D01*
X12485Y-12936D01*
X12478Y-12929D01*
X12478Y-11919D01*
X12478Y-10345D01*
X12474Y-10224D01*
X12474Y-10104D01*
X12469Y-10093D01*
X12469Y-10081D01*
X12386Y-9880D01*
X12380Y-9878D01*
X12373Y-9860D01*
X12187Y-9674D01*
X12169Y-9666D01*
X12167Y-9661D01*
X12054Y-9619D01*
X11943Y-9572D01*
X11931Y-9572D01*
X11919Y-9568D01*
X11799Y-9572D01*
X11679Y-9572D01*
X11668Y-9577D01*
X11656Y-9577D01*
X11454Y-9661D01*
X11452Y-9666D01*
X11435Y-9673D01*
X11248Y-9859D01*
X11241Y-9878D01*
X11235Y-9880D01*
X11193Y-9992D01*
X11147Y-10103D01*
X11147Y-10115D01*
X11143Y-10127D01*
X11147Y-10247D01*
X11147Y-10367D01*
X11152Y-10378D01*
X11152Y-10391D01*
X11235Y-10592D01*
X11241Y-10594D01*
X11248Y-10611D01*
X11434Y-10798D01*
X11452Y-10805D01*
X11454Y-10811D01*
X11567Y-10853D01*
X11678Y-10899D01*
X11690Y-10899D01*
X11702Y-10903D01*
X11822Y-10899D01*
X11942Y-10899D01*
X11953Y-10895D01*
X11965Y-10894D01*
X12167Y-10811D01*
X12169Y-10806D01*
X12186Y-10798D01*
X12373Y-10612D01*
X12380Y-10594D01*
X12386Y-10592D01*
X12428Y-10479D01*
X12474Y-10368D01*
X12474Y-10356D01*
X12478Y-10345D01*
X12478Y-11919D01*
X12474Y-11799D01*
X12474Y-11679D01*
X12469Y-11668D01*
X12469Y-11656D01*
X12386Y-11454D01*
X12380Y-11452D01*
X12373Y-11435D01*
X12187Y-11248D01*
X12169Y-11241D01*
X12167Y-11235D01*
X12054Y-11193D01*
X11943Y-11147D01*
X11931Y-11147D01*
X11919Y-11143D01*
X11799Y-11147D01*
X11679Y-11147D01*
X11668Y-11152D01*
X11656Y-11152D01*
X11454Y-11235D01*
X11452Y-11241D01*
X11435Y-11248D01*
X11248Y-11434D01*
X11241Y-11452D01*
X11235Y-11454D01*
X11193Y-11567D01*
X11147Y-11678D01*
X11147Y-11690D01*
X11143Y-11702D01*
X11147Y-11822D01*
X11147Y-11942D01*
X11152Y-11953D01*
X11152Y-11965D01*
X11235Y-12167D01*
X11241Y-12169D01*
X11248Y-12186D01*
X11434Y-12373D01*
X11452Y-12380D01*
X11454Y-12386D01*
X11567Y-12428D01*
X11678Y-12474D01*
X11690Y-12474D01*
X11702Y-12478D01*
X11822Y-12474D01*
X11942Y-12474D01*
X11953Y-12469D01*
X11965Y-12469D01*
X12167Y-12386D01*
X12169Y-12380D01*
X12186Y-12373D01*
X12373Y-12187D01*
X12380Y-12169D01*
X12386Y-12167D01*
X12428Y-12054D01*
X12474Y-11943D01*
X12474Y-11931D01*
X12478Y-11919D01*
X12478Y-12929D01*
X12359Y-12810D01*
X12333Y-12799D01*
X12332Y-12793D01*
X12262Y-12770D01*
X12195Y-12742D01*
X12179Y-12742D01*
X12163Y-12736D01*
X12090Y-12742D01*
X12017Y-12742D01*
X12002Y-12748D01*
X11986Y-12749D01*
X11880Y-12793D01*
X11879Y-12799D01*
X11853Y-12809D01*
X11811Y-12852D01*
X11769Y-12810D01*
X11742Y-12799D01*
X11741Y-12793D01*
X11672Y-12770D01*
X11605Y-12742D01*
X11588Y-12742D01*
X11572Y-12736D01*
X11500Y-12742D01*
X11427Y-12742D01*
X11411Y-12748D01*
X11395Y-12749D01*
X11290Y-12793D01*
X11288Y-12799D01*
X11262Y-12809D01*
X11137Y-12935D01*
X11126Y-12962D01*
X11119Y-12963D01*
X11096Y-13032D01*
X11068Y-13099D01*
X11068Y-13116D01*
X11063Y-13131D01*
X11068Y-13204D01*
X11068Y-13277D01*
X11075Y-13292D01*
X11076Y-13309D01*
X11119Y-13414D01*
X11125Y-13415D01*
X11136Y-13441D01*
X11179Y-13484D01*
X11137Y-13526D01*
X11126Y-13552D01*
X11119Y-13553D01*
X11096Y-13622D01*
X11068Y-13690D01*
X11068Y-13706D01*
X11063Y-13722D01*
X11068Y-13795D01*
X11068Y-13868D01*
X11075Y-13883D01*
X11076Y-13899D01*
X11119Y-14005D01*
X11125Y-14006D01*
X11136Y-14032D01*
X11179Y-14074D01*
X11137Y-14116D01*
X11126Y-14143D01*
X11119Y-14144D01*
X11096Y-14213D01*
X11068Y-14280D01*
X11068Y-14297D01*
X11063Y-14312D01*
X11068Y-14385D01*
X11068Y-14458D01*
X11075Y-14473D01*
X11076Y-14490D01*
X11119Y-14595D01*
X11125Y-14596D01*
X11136Y-14622D01*
X11262Y-14748D01*
X11288Y-14759D01*
X11290Y-14765D01*
X11359Y-14788D01*
X11426Y-14816D01*
X11442Y-14816D01*
X11458Y-14822D01*
X11531Y-14816D01*
X11604Y-14817D01*
X11619Y-14810D01*
X11635Y-14809D01*
X11741Y-14765D01*
X11742Y-14759D01*
X11768Y-14749D01*
X11810Y-14706D01*
X11852Y-14748D01*
X11879Y-14759D01*
X11880Y-14765D01*
X11949Y-14788D01*
X12017Y-14816D01*
X12033Y-14816D01*
X12049Y-14822D01*
X12121Y-14816D01*
X12194Y-14817D01*
X12210Y-14810D01*
X12226Y-14809D01*
X12332Y-14765D01*
X12333Y-14759D01*
X12359Y-14749D01*
X12484Y-14623D01*
X12495Y-14596D01*
X12502Y-14595D01*
X12525Y-14526D01*
X12553Y-14459D01*
X12553Y-14442D01*
X12558Y-14427D01*
X12558Y-16659D01*
X12478Y-16659D01*
X12478Y-15856D01*
X12474Y-15736D01*
X12474Y-15616D01*
X12469Y-15605D01*
X12469Y-15593D01*
X12386Y-15392D01*
X12380Y-15389D01*
X12373Y-15372D01*
X12187Y-15185D01*
X12169Y-15178D01*
X12167Y-15172D01*
X12054Y-15130D01*
X11943Y-15084D01*
X11931Y-15084D01*
X11919Y-15080D01*
X11799Y-15084D01*
X11679Y-15084D01*
X11668Y-15089D01*
X11656Y-15089D01*
X11454Y-15172D01*
X11452Y-15178D01*
X11435Y-15185D01*
X11248Y-15371D01*
X11241Y-15389D01*
X11235Y-15392D01*
X11193Y-15504D01*
X11147Y-15615D01*
X11147Y-15627D01*
X11143Y-15639D01*
X11147Y-15759D01*
X11147Y-15879D01*
X11152Y-15890D01*
X11152Y-15902D01*
X11235Y-16104D01*
X11241Y-16106D01*
X11248Y-16123D01*
X11434Y-16310D01*
X11452Y-16317D01*
X11454Y-16323D01*
X11567Y-16365D01*
X11678Y-16411D01*
X11690Y-16411D01*
X11702Y-16415D01*
X11822Y-16411D01*
X11942Y-16411D01*
X11953Y-16406D01*
X11965Y-16406D01*
X12167Y-16323D01*
X12169Y-16317D01*
X12186Y-16310D01*
X12373Y-16124D01*
X12380Y-16106D01*
X12386Y-16104D01*
X12428Y-15991D01*
X12474Y-15880D01*
X12474Y-15868D01*
X12478Y-15856D01*
X12478Y-16659D01*
X10025Y-16659D01*
X10025Y-15396D01*
X9945Y-15203D01*
X9797Y-15055D01*
X9664Y-14999D01*
X9797Y-14945D01*
X9944Y-14797D01*
X10024Y-14604D01*
X10025Y-14396D01*
X9945Y-14203D01*
X9797Y-14055D01*
X9664Y-13999D01*
X9797Y-13945D01*
X9944Y-13797D01*
X10024Y-13604D01*
X10025Y-13396D01*
X9945Y-13203D01*
X9797Y-13055D01*
X9664Y-12999D01*
X9797Y-12945D01*
X9944Y-12797D01*
X10024Y-12604D01*
X10025Y-12396D01*
X10025Y-8396D01*
X9945Y-8203D01*
X9797Y-8055D01*
X9664Y-7999D01*
X9797Y-7945D01*
X9944Y-7797D01*
X10024Y-7604D01*
X10025Y-7396D01*
X9945Y-7203D01*
X9797Y-7055D01*
X9725Y-7025D01*
X9824Y-7025D01*
X9916Y-6987D01*
X9986Y-6916D01*
X10024Y-6824D01*
X10025Y-6725D01*
X10025Y-6175D01*
X9987Y-6083D01*
X9916Y-6013D01*
X9824Y-5975D01*
X9725Y-5974D01*
X9175Y-5974D01*
X9083Y-6012D01*
X9013Y-6083D01*
X8975Y-6175D01*
X8974Y-6274D01*
X8974Y-6824D01*
X9012Y-6916D01*
X9083Y-6986D01*
X9175Y-7024D01*
X9274Y-7025D01*
X9274Y-7025D01*
X9203Y-7054D01*
X9055Y-7202D01*
X8975Y-7395D01*
X8974Y-7603D01*
X9054Y-7797D01*
X9202Y-7944D01*
X9335Y-8000D01*
X9203Y-8054D01*
X9055Y-8202D01*
X8975Y-8395D01*
X8974Y-8603D01*
X9054Y-8797D01*
X9202Y-8944D01*
X9395Y-9024D01*
X9603Y-9025D01*
X9797Y-8945D01*
X9944Y-8797D01*
X10024Y-8604D01*
X10025Y-8396D01*
X10025Y-12396D01*
X9945Y-12203D01*
X9797Y-12055D01*
X9725Y-12025D01*
X9824Y-12025D01*
X9916Y-11987D01*
X9986Y-11916D01*
X10024Y-11824D01*
X10025Y-11725D01*
X10025Y-11175D01*
X9987Y-11083D01*
X9916Y-11013D01*
X9824Y-10975D01*
X9725Y-10974D01*
X9175Y-10974D01*
X9083Y-11012D01*
X9013Y-11083D01*
X8975Y-11175D01*
X8974Y-11274D01*
X8974Y-11824D01*
X9012Y-11916D01*
X9083Y-11986D01*
X9175Y-12024D01*
X9274Y-12025D01*
X9274Y-12025D01*
X9203Y-12054D01*
X9055Y-12202D01*
X8975Y-12395D01*
X8974Y-12603D01*
X9054Y-12797D01*
X9202Y-12944D01*
X9335Y-13000D01*
X9203Y-13054D01*
X9055Y-13202D01*
X8975Y-13395D01*
X8974Y-13603D01*
X9054Y-13797D01*
X9202Y-13944D01*
X9335Y-14000D01*
X9203Y-14054D01*
X9055Y-14202D01*
X8975Y-14395D01*
X8974Y-14603D01*
X9054Y-14797D01*
X9202Y-14944D01*
X9335Y-15000D01*
X9203Y-15054D01*
X9055Y-15202D01*
X8975Y-15395D01*
X8974Y-15603D01*
X9054Y-15797D01*
X9202Y-15944D01*
X9395Y-16024D01*
X9603Y-16025D01*
X9797Y-15945D01*
X9944Y-15797D01*
X10024Y-15604D01*
X10025Y-15396D01*
X10025Y-16659D01*
X8147Y-16659D01*
X8147Y-15966D01*
X8147Y-11241D01*
X8147Y-9572D01*
X8143Y-9456D01*
X8143Y-9341D01*
X8138Y-9329D01*
X8138Y-9316D01*
X8058Y-9124D01*
X8053Y-9122D01*
X8046Y-9104D01*
X7865Y-8923D01*
X7846Y-8915D01*
X7844Y-8909D01*
X7735Y-8869D01*
X7628Y-8824D01*
X7615Y-8824D01*
X7604Y-8820D01*
X7488Y-8824D01*
X7372Y-8824D01*
X7360Y-8829D01*
X7348Y-8829D01*
X7155Y-8909D01*
X7153Y-8915D01*
X7135Y-8922D01*
X6954Y-9103D01*
X6946Y-9122D01*
X6941Y-9124D01*
X6900Y-9232D01*
X6856Y-9339D01*
X6856Y-9352D01*
X6852Y-9364D01*
X6856Y-9480D01*
X6856Y-9595D01*
X6861Y-9607D01*
X6861Y-9620D01*
X6941Y-9812D01*
X6946Y-9814D01*
X6953Y-9832D01*
X7134Y-10013D01*
X7153Y-10021D01*
X7155Y-10027D01*
X7264Y-10067D01*
X7371Y-10112D01*
X7384Y-10112D01*
X7395Y-10116D01*
X7511Y-10112D01*
X7627Y-10112D01*
X7639Y-10107D01*
X7651Y-10107D01*
X7844Y-10027D01*
X7846Y-10021D01*
X7864Y-10014D01*
X8045Y-9833D01*
X8053Y-9814D01*
X8058Y-9812D01*
X8099Y-9704D01*
X8143Y-9597D01*
X8143Y-9584D01*
X8147Y-9572D01*
X8147Y-11241D01*
X8143Y-11126D01*
X8143Y-11010D01*
X8138Y-10998D01*
X8138Y-10986D01*
X8058Y-10793D01*
X8053Y-10791D01*
X8046Y-10773D01*
X7865Y-10592D01*
X7846Y-10584D01*
X7844Y-10578D01*
X7735Y-10538D01*
X7628Y-10494D01*
X7615Y-10494D01*
X7604Y-10489D01*
X7488Y-10494D01*
X7372Y-10493D01*
X7360Y-10498D01*
X7348Y-10499D01*
X7155Y-10578D01*
X7153Y-10584D01*
X7135Y-10591D01*
X6954Y-10772D01*
X6946Y-10791D01*
X6941Y-10793D01*
X6900Y-10902D01*
X6856Y-11009D01*
X6856Y-11021D01*
X6852Y-11033D01*
X6856Y-11149D01*
X6856Y-11265D01*
X6861Y-11276D01*
X6861Y-11289D01*
X6941Y-11481D01*
X6946Y-11483D01*
X6953Y-11501D01*
X7134Y-11683D01*
X7153Y-11690D01*
X7155Y-11696D01*
X7264Y-11736D01*
X7371Y-11781D01*
X7384Y-11781D01*
X7395Y-11785D01*
X7511Y-11781D01*
X7627Y-11781D01*
X7639Y-11776D01*
X7651Y-11776D01*
X7844Y-11696D01*
X7846Y-11691D01*
X7864Y-11683D01*
X8045Y-11502D01*
X8053Y-11484D01*
X8058Y-11481D01*
X8099Y-11373D01*
X8143Y-11266D01*
X8143Y-11253D01*
X8147Y-11241D01*
X8147Y-15966D01*
X8143Y-15850D01*
X8143Y-15734D01*
X8138Y-15723D01*
X8138Y-15710D01*
X8058Y-15518D01*
X8053Y-15516D01*
X8046Y-15498D01*
X7865Y-15316D01*
X7846Y-15309D01*
X7844Y-15303D01*
X7735Y-15263D01*
X7628Y-15218D01*
X7615Y-15218D01*
X7604Y-15214D01*
X7488Y-15218D01*
X7372Y-15218D01*
X7360Y-15223D01*
X7348Y-15223D01*
X7155Y-15303D01*
X7153Y-15308D01*
X7135Y-15316D01*
X6954Y-15497D01*
X6946Y-15515D01*
X6941Y-15518D01*
X6900Y-15626D01*
X6856Y-15733D01*
X6856Y-15746D01*
X6852Y-15758D01*
X6856Y-15873D01*
X6856Y-15989D01*
X6861Y-16001D01*
X6861Y-16013D01*
X6941Y-16206D01*
X6946Y-16208D01*
X6953Y-16226D01*
X7134Y-16407D01*
X7153Y-16415D01*
X7155Y-16421D01*
X7264Y-16461D01*
X7371Y-16505D01*
X7384Y-16505D01*
X7395Y-16510D01*
X7511Y-16505D01*
X7627Y-16506D01*
X7639Y-16501D01*
X7651Y-16500D01*
X7844Y-16421D01*
X7846Y-16415D01*
X7864Y-16408D01*
X8045Y-16227D01*
X8053Y-16208D01*
X8058Y-16206D01*
X8099Y-16097D01*
X8143Y-15990D01*
X8143Y-15978D01*
X8147Y-15966D01*
X8147Y-16659D01*
X4994Y-16659D01*
X4994Y-15870D01*
X5012Y-15916D01*
X5083Y-15986D01*
X5175Y-16024D01*
X5274Y-16025D01*
X5824Y-16025D01*
X5916Y-15987D01*
X5986Y-15916D01*
X6024Y-15824D01*
X6025Y-15725D01*
X6025Y-15175D01*
X5987Y-15083D01*
X5916Y-15013D01*
X5824Y-14975D01*
X5725Y-14974D01*
X5725Y-14974D01*
X5797Y-14945D01*
X5944Y-14797D01*
X6024Y-14604D01*
X6025Y-14396D01*
X5945Y-14203D01*
X5797Y-14055D01*
X5664Y-13999D01*
X5797Y-13945D01*
X5944Y-13797D01*
X6024Y-13604D01*
X6025Y-13396D01*
X5945Y-13203D01*
X5797Y-13055D01*
X5664Y-12999D01*
X5797Y-12945D01*
X5944Y-12797D01*
X6024Y-12604D01*
X6025Y-12396D01*
X5945Y-12203D01*
X5797Y-12055D01*
X5664Y-11999D01*
X5797Y-11945D01*
X5944Y-11797D01*
X6024Y-11604D01*
X6025Y-11396D01*
X5945Y-11203D01*
X5797Y-11055D01*
X5604Y-10975D01*
X5396Y-10974D01*
X5203Y-11054D01*
X5055Y-11202D01*
X4994Y-11349D01*
X4994Y-8870D01*
X5012Y-8916D01*
X5083Y-8986D01*
X5175Y-9024D01*
X5274Y-9025D01*
X5824Y-9025D01*
X5916Y-8987D01*
X5986Y-8916D01*
X6024Y-8824D01*
X6025Y-8725D01*
X6025Y-8175D01*
X5987Y-8083D01*
X5916Y-8013D01*
X5824Y-7975D01*
X5725Y-7974D01*
X5725Y-7974D01*
X5797Y-7945D01*
X5944Y-7797D01*
X6024Y-7604D01*
X6025Y-7396D01*
X5945Y-7203D01*
X5797Y-7055D01*
X5664Y-6999D01*
X5797Y-6945D01*
X5944Y-6797D01*
X6024Y-6604D01*
X6025Y-6396D01*
X5945Y-6203D01*
X5797Y-6055D01*
X5604Y-5975D01*
X5396Y-5974D01*
X5203Y-6054D01*
X5055Y-6202D01*
X4994Y-6349D01*
X4994Y-4994D01*
X7127Y-4994D01*
X6954Y-5166D01*
X6946Y-5185D01*
X6941Y-5187D01*
X6900Y-5295D01*
X6856Y-5402D01*
X6856Y-5415D01*
X6852Y-5427D01*
X6856Y-5543D01*
X6856Y-5658D01*
X6861Y-5670D01*
X6861Y-5683D01*
X6941Y-5875D01*
X6946Y-5877D01*
X6953Y-5895D01*
X7134Y-6076D01*
X7153Y-6084D01*
X7155Y-6090D01*
X7264Y-6130D01*
X7371Y-6175D01*
X7384Y-6175D01*
X7395Y-6179D01*
X7511Y-6175D01*
X7627Y-6175D01*
X7639Y-6170D01*
X7651Y-6170D01*
X7844Y-6090D01*
X7846Y-6084D01*
X7864Y-6077D01*
X8045Y-5896D01*
X8053Y-5877D01*
X8058Y-5875D01*
X8099Y-5767D01*
X8143Y-5660D01*
X8143Y-5647D01*
X8147Y-5635D01*
X8143Y-5519D01*
X8143Y-5404D01*
X8138Y-5392D01*
X8138Y-5379D01*
X8058Y-5187D01*
X8053Y-5185D01*
X8046Y-5167D01*
X7873Y-4994D01*
X11390Y-4994D01*
X11248Y-5135D01*
X11241Y-5153D01*
X11235Y-5155D01*
X11193Y-5268D01*
X11147Y-5379D01*
X11147Y-5391D01*
X11143Y-5402D01*
X11147Y-5523D01*
X11147Y-5643D01*
X11152Y-5654D01*
X11152Y-5666D01*
X11235Y-5867D01*
X11241Y-5869D01*
X11248Y-5887D01*
X11434Y-6073D01*
X11452Y-6081D01*
X11454Y-6086D01*
X11567Y-6129D01*
X11678Y-6175D01*
X11690Y-6175D01*
X11702Y-6179D01*
X11822Y-6175D01*
X11942Y-6175D01*
X11953Y-6170D01*
X11965Y-6170D01*
X12167Y-6086D01*
X12169Y-6081D01*
X12186Y-6074D01*
X12373Y-5888D01*
X12380Y-5869D01*
X12386Y-5867D01*
X12428Y-5755D01*
X12474Y-5644D01*
X12474Y-5632D01*
X12478Y-5620D01*
X12474Y-5500D01*
X12474Y-5380D01*
X12469Y-5369D01*
X12469Y-5356D01*
X12386Y-5155D01*
X12380Y-5153D01*
X12373Y-5136D01*
X12231Y-4994D01*
X24139Y-4994D01*
X24139Y-8410D01*
X24133Y-8404D01*
X24114Y-8396D01*
X24112Y-8391D01*
X24004Y-8350D01*
X23897Y-8306D01*
X23884Y-8306D01*
X23872Y-8302D01*
X23756Y-8306D01*
X23641Y-8306D01*
X23629Y-8311D01*
X23616Y-8311D01*
X23424Y-8391D01*
X23422Y-8396D01*
X23404Y-8403D01*
X23376Y-8432D01*
X23376Y-7009D01*
X23292Y-6807D01*
X23137Y-6652D01*
X23056Y-6618D01*
X23137Y-6585D01*
X23291Y-6430D01*
X23375Y-6228D01*
X23376Y-6009D01*
X23292Y-5807D01*
X23137Y-5652D01*
X22935Y-5568D01*
X22717Y-5568D01*
X22514Y-5652D01*
X22359Y-5806D01*
X22326Y-5888D01*
X22292Y-5807D01*
X22137Y-5652D01*
X21935Y-5568D01*
X21717Y-5568D01*
X21514Y-5652D01*
X21359Y-5806D01*
X21326Y-5888D01*
X21292Y-5807D01*
X21137Y-5652D01*
X20935Y-5568D01*
X20717Y-5568D01*
X20514Y-5652D01*
X20359Y-5806D01*
X20276Y-6009D01*
X20275Y-6227D01*
X20359Y-6430D01*
X20498Y-6568D01*
X20476Y-6568D01*
X20384Y-6606D01*
X20314Y-6677D01*
X20276Y-6768D01*
X20275Y-6868D01*
X20275Y-7468D01*
X20313Y-7560D01*
X20384Y-7630D01*
X20476Y-7668D01*
X20575Y-7668D01*
X21175Y-7668D01*
X21267Y-7630D01*
X21337Y-7560D01*
X21375Y-7468D01*
X21375Y-7446D01*
X21514Y-7584D01*
X21716Y-7668D01*
X21934Y-7668D01*
X22137Y-7585D01*
X22291Y-7430D01*
X22325Y-7349D01*
X22359Y-7430D01*
X22514Y-7584D01*
X22716Y-7668D01*
X22934Y-7668D01*
X23137Y-7585D01*
X23291Y-7430D01*
X23375Y-7228D01*
X23376Y-7009D01*
X23376Y-8432D01*
X23223Y-8584D01*
X23215Y-8603D01*
X23209Y-8605D01*
X23169Y-8714D01*
X23124Y-8821D01*
X23124Y-8834D01*
X23120Y-8845D01*
X23124Y-8961D01*
X23124Y-9077D01*
X23129Y-9089D01*
X23129Y-9101D01*
X23209Y-9294D01*
X23215Y-9296D01*
X23222Y-9314D01*
X23403Y-9495D01*
X23422Y-9503D01*
X23424Y-9508D01*
X23532Y-9549D01*
X23639Y-9593D01*
X23652Y-9593D01*
X23664Y-9597D01*
X23780Y-9593D01*
X23895Y-9593D01*
X23907Y-9588D01*
X23920Y-9588D01*
X24112Y-9508D01*
X24114Y-9503D01*
X24132Y-9496D01*
X24139Y-9488D01*
X24139Y-14613D01*
X24129Y-14609D01*
X24127Y-14603D01*
X24015Y-14561D01*
X23904Y-14515D01*
X23891Y-14515D01*
X23880Y-14511D01*
X23760Y-14515D01*
X23640Y-14515D01*
X23628Y-14519D01*
X23616Y-14520D01*
X23415Y-14603D01*
X23413Y-14608D01*
X23396Y-14616D01*
X23303Y-14708D01*
X23303Y-12719D01*
X23219Y-12517D01*
X23065Y-12362D01*
X22983Y-12328D01*
X23064Y-12295D01*
X23219Y-12140D01*
X23303Y-11938D01*
X23303Y-11719D01*
X23219Y-11517D01*
X23065Y-11362D01*
X22863Y-11278D01*
X22644Y-11278D01*
X22442Y-11362D01*
X22287Y-11516D01*
X22253Y-11598D01*
X22219Y-11517D01*
X22065Y-11362D01*
X21863Y-11278D01*
X21644Y-11278D01*
X21442Y-11362D01*
X21287Y-11516D01*
X21253Y-11598D01*
X21219Y-11517D01*
X21065Y-11362D01*
X20863Y-11278D01*
X20644Y-11278D01*
X20479Y-11346D01*
X20479Y-9054D01*
X20475Y-8938D01*
X20475Y-8822D01*
X20470Y-8810D01*
X20470Y-8798D01*
X20390Y-8605D01*
X20384Y-8603D01*
X20377Y-8585D01*
X20196Y-8404D01*
X20177Y-8396D01*
X20175Y-8391D01*
X20067Y-8350D01*
X19960Y-8306D01*
X19947Y-8306D01*
X19935Y-8302D01*
X19819Y-8306D01*
X19704Y-8306D01*
X19692Y-8311D01*
X19679Y-8311D01*
X19487Y-8391D01*
X19485Y-8396D01*
X19467Y-8403D01*
X19286Y-8584D01*
X19278Y-8603D01*
X19272Y-8605D01*
X19232Y-8714D01*
X19187Y-8821D01*
X19187Y-8834D01*
X19183Y-8845D01*
X19187Y-8961D01*
X19187Y-9077D01*
X19192Y-9089D01*
X19192Y-9101D01*
X19272Y-9294D01*
X19278Y-9296D01*
X19285Y-9314D01*
X19466Y-9495D01*
X19485Y-9503D01*
X19487Y-9508D01*
X19595Y-9549D01*
X19702Y-9593D01*
X19715Y-9593D01*
X19727Y-9597D01*
X19843Y-9593D01*
X19958Y-9593D01*
X19970Y-9588D01*
X19983Y-9588D01*
X20175Y-9508D01*
X20177Y-9503D01*
X20195Y-9496D01*
X20376Y-9315D01*
X20384Y-9296D01*
X20390Y-9294D01*
X20430Y-9185D01*
X20475Y-9078D01*
X20475Y-9065D01*
X20479Y-9054D01*
X20479Y-11346D01*
X20442Y-11362D01*
X20287Y-11516D01*
X20203Y-11718D01*
X20203Y-11937D01*
X20286Y-12139D01*
X20425Y-12278D01*
X20403Y-12278D01*
X20311Y-12316D01*
X20241Y-12386D01*
X20203Y-12478D01*
X20203Y-12578D01*
X20203Y-13178D01*
X20241Y-13270D01*
X20311Y-13340D01*
X20403Y-13378D01*
X20502Y-13378D01*
X21102Y-13378D01*
X21194Y-13340D01*
X21264Y-13270D01*
X21303Y-13178D01*
X21303Y-13156D01*
X21441Y-13294D01*
X21643Y-13378D01*
X21862Y-13378D01*
X21953Y-13341D01*
X21953Y-13604D01*
X21478Y-14078D01*
X21103Y-14078D01*
X20988Y-14101D01*
X20891Y-14166D01*
X20491Y-14566D01*
X20425Y-14663D01*
X20403Y-14778D01*
X20403Y-14817D01*
X20397Y-14803D01*
X20210Y-14616D01*
X20192Y-14609D01*
X20190Y-14603D01*
X20078Y-14561D01*
X19967Y-14515D01*
X19954Y-14515D01*
X19943Y-14511D01*
X19823Y-14515D01*
X19703Y-14515D01*
X19691Y-14519D01*
X19679Y-14520D01*
X19478Y-14603D01*
X19476Y-14608D01*
X19459Y-14616D01*
X19272Y-14802D01*
X19265Y-14820D01*
X19259Y-14822D01*
X19217Y-14935D01*
X19171Y-15045D01*
X19171Y-9052D01*
X19167Y-8937D01*
X19167Y-8821D01*
X19162Y-8809D01*
X19162Y-8797D01*
X19082Y-8604D01*
X19077Y-8602D01*
X19069Y-8584D01*
X18888Y-8403D01*
X18869Y-8395D01*
X18867Y-8390D01*
X18759Y-8349D01*
X18711Y-8329D01*
X18711Y-6977D01*
X18627Y-6775D01*
X18473Y-6620D01*
X18391Y-6586D01*
X18472Y-6553D01*
X18627Y-6398D01*
X18711Y-6196D01*
X18711Y-5977D01*
X18627Y-5775D01*
X18473Y-5620D01*
X18271Y-5536D01*
X18052Y-5536D01*
X18040Y-5541D01*
X17836Y-5337D01*
X17739Y-5272D01*
X17624Y-5250D01*
X15856Y-5250D01*
X15741Y-5272D01*
X15644Y-5337D01*
X15444Y-5537D01*
X15407Y-5593D01*
X15271Y-5536D01*
X15052Y-5536D01*
X14850Y-5620D01*
X14695Y-5774D01*
X14661Y-5856D01*
X14627Y-5775D01*
X14473Y-5620D01*
X14271Y-5536D01*
X14052Y-5536D01*
X13850Y-5620D01*
X13695Y-5774D01*
X13611Y-5976D01*
X13611Y-6195D01*
X13694Y-6397D01*
X13833Y-6536D01*
X13811Y-6536D01*
X13719Y-6574D01*
X13649Y-6644D01*
X13611Y-6736D01*
X13611Y-6836D01*
X13611Y-7436D01*
X13649Y-7528D01*
X13719Y-7598D01*
X13811Y-7636D01*
X13910Y-7636D01*
X14510Y-7636D01*
X14602Y-7598D01*
X14673Y-7528D01*
X14711Y-7436D01*
X14711Y-7414D01*
X14849Y-7552D01*
X15051Y-7636D01*
X15270Y-7636D01*
X15356Y-7601D01*
X15356Y-8475D01*
X15257Y-8575D01*
X15172Y-8574D01*
X15015Y-8639D01*
X14896Y-8758D01*
X14831Y-8915D01*
X14831Y-9084D01*
X14895Y-9240D01*
X15015Y-9360D01*
X15171Y-9424D01*
X15340Y-9425D01*
X15496Y-9360D01*
X15616Y-9241D01*
X15681Y-9084D01*
X15681Y-8999D01*
X15868Y-8812D01*
X15868Y-8812D01*
X15933Y-8714D01*
X15956Y-8600D01*
X15956Y-8600D01*
X15956Y-7596D01*
X16051Y-7636D01*
X16270Y-7636D01*
X16356Y-7601D01*
X16356Y-8574D01*
X16322Y-8574D01*
X16165Y-8639D01*
X16046Y-8758D01*
X15981Y-8915D01*
X15981Y-9084D01*
X16045Y-9240D01*
X16165Y-9360D01*
X16321Y-9424D01*
X16490Y-9425D01*
X16646Y-9360D01*
X16756Y-9251D01*
X16815Y-9310D01*
X16971Y-9374D01*
X17140Y-9375D01*
X17296Y-9310D01*
X17416Y-9191D01*
X17481Y-9034D01*
X17481Y-8865D01*
X17461Y-8817D01*
X17461Y-7557D01*
X17472Y-7553D01*
X17627Y-7398D01*
X17661Y-7316D01*
X17694Y-7397D01*
X17849Y-7552D01*
X18051Y-7636D01*
X18270Y-7636D01*
X18472Y-7553D01*
X18627Y-7398D01*
X18711Y-7196D01*
X18711Y-6977D01*
X18711Y-8329D01*
X18652Y-8305D01*
X18639Y-8305D01*
X18627Y-8300D01*
X18511Y-8305D01*
X18396Y-8305D01*
X18384Y-8309D01*
X18371Y-8310D01*
X18179Y-8390D01*
X18177Y-8395D01*
X18159Y-8402D01*
X17978Y-8583D01*
X17970Y-8602D01*
X17964Y-8604D01*
X17924Y-8713D01*
X17880Y-8820D01*
X17880Y-8832D01*
X17875Y-8844D01*
X17879Y-8960D01*
X17879Y-9076D01*
X17884Y-9087D01*
X17885Y-9100D01*
X17964Y-9293D01*
X17970Y-9295D01*
X17977Y-9312D01*
X18158Y-9494D01*
X18177Y-9502D01*
X18179Y-9507D01*
X18288Y-9547D01*
X18395Y-9592D01*
X18407Y-9592D01*
X18419Y-9596D01*
X18535Y-9592D01*
X18651Y-9592D01*
X18662Y-9587D01*
X18675Y-9587D01*
X18867Y-9507D01*
X18869Y-9502D01*
X18887Y-9494D01*
X19069Y-9313D01*
X19076Y-9295D01*
X19082Y-9293D01*
X19122Y-9184D01*
X19167Y-9077D01*
X19167Y-9064D01*
X19171Y-9052D01*
X19171Y-15045D01*
X19171Y-15046D01*
X19171Y-15058D01*
X19167Y-15069D01*
X19171Y-15189D01*
X19171Y-15310D01*
X19175Y-15321D01*
X19176Y-15333D01*
X19259Y-15534D01*
X19264Y-15536D01*
X19271Y-15554D01*
X19458Y-15740D01*
X19476Y-15748D01*
X19478Y-15753D01*
X19591Y-15795D01*
X19702Y-15842D01*
X19714Y-15842D01*
X19725Y-15846D01*
X19845Y-15842D01*
X19966Y-15842D01*
X19977Y-15837D01*
X19989Y-15837D01*
X20190Y-15753D01*
X20192Y-15748D01*
X20209Y-15741D01*
X20396Y-15555D01*
X20404Y-15536D01*
X20409Y-15534D01*
X20451Y-15422D01*
X20497Y-15311D01*
X20497Y-15299D01*
X20502Y-15287D01*
X20498Y-15184D01*
X20765Y-15451D01*
X20765Y-15562D01*
X20833Y-15726D01*
X20959Y-15852D01*
X21123Y-15920D01*
X21301Y-15920D01*
X21465Y-15853D01*
X21507Y-15810D01*
X21549Y-15852D01*
X21713Y-15920D01*
X21891Y-15920D01*
X22055Y-15853D01*
X22098Y-15810D01*
X22140Y-15852D01*
X22304Y-15920D01*
X22482Y-15920D01*
X22646Y-15853D01*
X22772Y-15727D01*
X22840Y-15563D01*
X22840Y-15385D01*
X22772Y-15221D01*
X22730Y-15178D01*
X22772Y-15136D01*
X22840Y-14972D01*
X22840Y-14794D01*
X22772Y-14630D01*
X22647Y-14504D01*
X22482Y-14436D01*
X22305Y-14436D01*
X22140Y-14504D01*
X22098Y-14546D01*
X22056Y-14504D01*
X21946Y-14459D01*
X22465Y-13940D01*
X22465Y-13940D01*
X22530Y-13843D01*
X22553Y-13728D01*
X22553Y-13728D01*
X22553Y-13341D01*
X22643Y-13378D01*
X22862Y-13378D01*
X23064Y-13295D01*
X23219Y-13140D01*
X23303Y-12938D01*
X23303Y-12719D01*
X23303Y-14708D01*
X23209Y-14802D01*
X23202Y-14820D01*
X23196Y-14822D01*
X23154Y-14935D01*
X23108Y-15046D01*
X23108Y-15058D01*
X23104Y-15069D01*
X23108Y-15189D01*
X23108Y-15310D01*
X23112Y-15321D01*
X23113Y-15333D01*
X23196Y-15534D01*
X23201Y-15536D01*
X23208Y-15554D01*
X23395Y-15740D01*
X23413Y-15748D01*
X23415Y-15753D01*
X23528Y-15795D01*
X23639Y-15842D01*
X23651Y-15842D01*
X23662Y-15846D01*
X23782Y-15842D01*
X23903Y-15842D01*
X23914Y-15837D01*
X23926Y-15837D01*
X24127Y-15753D01*
X24129Y-15748D01*
X24139Y-15744D01*
X24139Y-16659D01*
X24139Y-16659D01*
G37*
G54D20*
X24139Y-16659D02*
X19136Y-16659D01*
X19136Y-15208D01*
X19131Y-15088D01*
X19132Y-14968D01*
X19127Y-14957D01*
X19126Y-14945D01*
X19043Y-14743D01*
X19038Y-14741D01*
X19031Y-14724D01*
X18844Y-14537D01*
X18826Y-14530D01*
X18824Y-14524D01*
X18712Y-14482D01*
X18601Y-14436D01*
X18588Y-14436D01*
X18577Y-14432D01*
X18457Y-14436D01*
X18337Y-14436D01*
X18325Y-14441D01*
X18313Y-14441D01*
X18156Y-14506D01*
X18156Y-13450D01*
X18215Y-13450D01*
X18417Y-13366D01*
X18572Y-13211D01*
X18656Y-13009D01*
X18656Y-12791D01*
X18572Y-12588D01*
X18418Y-12434D01*
X18336Y-12400D01*
X18417Y-12366D01*
X18572Y-12211D01*
X18656Y-12009D01*
X18656Y-11791D01*
X18572Y-11588D01*
X18418Y-11434D01*
X18216Y-11350D01*
X17997Y-11349D01*
X17795Y-11433D01*
X17640Y-11588D01*
X17606Y-11669D01*
X17572Y-11588D01*
X17418Y-11434D01*
X17216Y-11350D01*
X16997Y-11349D01*
X16795Y-11433D01*
X16640Y-11588D01*
X16606Y-11669D01*
X16572Y-11588D01*
X16418Y-11434D01*
X16216Y-11350D01*
X15997Y-11349D01*
X15795Y-11433D01*
X15640Y-11588D01*
X15606Y-11669D01*
X15572Y-11588D01*
X15418Y-11434D01*
X15216Y-11350D01*
X14997Y-11349D01*
X14795Y-11433D01*
X14640Y-11588D01*
X14606Y-11669D01*
X14572Y-11588D01*
X14447Y-11463D01*
X14447Y-9052D01*
X14442Y-8937D01*
X14443Y-8821D01*
X14438Y-8809D01*
X14437Y-8797D01*
X14358Y-8604D01*
X14352Y-8602D01*
X14345Y-8584D01*
X14164Y-8403D01*
X14145Y-8395D01*
X14143Y-8390D01*
X14034Y-8349D01*
X13927Y-8305D01*
X13915Y-8305D01*
X13903Y-8300D01*
X13787Y-8305D01*
X13671Y-8305D01*
X13660Y-8309D01*
X13647Y-8310D01*
X13455Y-8390D01*
X13453Y-8395D01*
X13435Y-8402D01*
X13253Y-8583D01*
X13246Y-8602D01*
X13240Y-8604D01*
X13200Y-8713D01*
X13155Y-8820D01*
X13155Y-8832D01*
X13151Y-8844D01*
X13155Y-8960D01*
X13155Y-9076D01*
X13160Y-9087D01*
X13160Y-9100D01*
X13240Y-9293D01*
X13245Y-9295D01*
X13253Y-9312D01*
X13434Y-9494D01*
X13452Y-9502D01*
X13455Y-9507D01*
X13563Y-9547D01*
X13670Y-9592D01*
X13683Y-9592D01*
X13695Y-9596D01*
X13810Y-9592D01*
X13926Y-9592D01*
X13938Y-9587D01*
X13950Y-9587D01*
X14143Y-9507D01*
X14145Y-9502D01*
X14163Y-9494D01*
X14344Y-9313D01*
X14352Y-9295D01*
X14358Y-9293D01*
X14398Y-9184D01*
X14442Y-9077D01*
X14442Y-9064D01*
X14447Y-9052D01*
X14447Y-11463D01*
X14418Y-11434D01*
X14216Y-11350D01*
X13997Y-11349D01*
X13795Y-11433D01*
X13640Y-11588D01*
X13556Y-11790D01*
X13556Y-12008D01*
X13639Y-12211D01*
X13778Y-12349D01*
X13756Y-12349D01*
X13664Y-12387D01*
X13594Y-12458D01*
X13556Y-12550D01*
X13556Y-12649D01*
X13556Y-13249D01*
X13594Y-13341D01*
X13664Y-13411D01*
X13756Y-13449D01*
X13855Y-13450D01*
X14455Y-13450D01*
X14547Y-13412D01*
X14618Y-13341D01*
X14656Y-13249D01*
X14656Y-13227D01*
X14794Y-13365D01*
X14996Y-13449D01*
X15215Y-13450D01*
X15417Y-13366D01*
X15572Y-13211D01*
X15606Y-13130D01*
X15639Y-13211D01*
X15794Y-13365D01*
X15996Y-13449D01*
X16215Y-13450D01*
X16306Y-13412D01*
X16306Y-13775D01*
X16082Y-14000D01*
X14656Y-14000D01*
X14541Y-14022D01*
X14444Y-14087D01*
X14194Y-14337D01*
X14129Y-14435D01*
X14109Y-14533D01*
X14102Y-14530D01*
X14100Y-14524D01*
X13987Y-14482D01*
X13876Y-14436D01*
X13864Y-14436D01*
X13852Y-14432D01*
X13732Y-14436D01*
X13612Y-14436D01*
X13601Y-14441D01*
X13589Y-14441D01*
X13388Y-14524D01*
X13386Y-14530D01*
X13368Y-14537D01*
X13182Y-14723D01*
X13174Y-14741D01*
X13168Y-14743D01*
X13126Y-14856D01*
X13080Y-14967D01*
X13080Y-14979D01*
X13076Y-14991D01*
X13080Y-15111D01*
X13080Y-15231D01*
X13085Y-15242D01*
X13085Y-15254D01*
X13168Y-15456D01*
X13174Y-15458D01*
X13181Y-15475D01*
X13367Y-15662D01*
X13385Y-15669D01*
X13388Y-15675D01*
X13500Y-15717D01*
X13611Y-15763D01*
X13623Y-15763D01*
X13635Y-15767D01*
X13755Y-15763D01*
X13875Y-15763D01*
X13886Y-15758D01*
X13898Y-15758D01*
X14100Y-15675D01*
X14102Y-15669D01*
X14118Y-15662D01*
X14129Y-15714D01*
X14194Y-15812D01*
X14494Y-16112D01*
X14494Y-16112D01*
X14591Y-16177D01*
X14706Y-16199D01*
X14706Y-16200D01*
X15601Y-16200D01*
X15601Y-16199D01*
X15716Y-16177D01*
X15716Y-16177D01*
X15813Y-16112D01*
X15934Y-15991D01*
X15995Y-16140D01*
X16115Y-16260D01*
X16271Y-16324D01*
X16440Y-16325D01*
X16596Y-16260D01*
X16657Y-16200D01*
X17556Y-16200D01*
X17556Y-16199D01*
X17671Y-16177D01*
X17671Y-16177D01*
X17768Y-16112D01*
X18068Y-15812D01*
X18068Y-15812D01*
X18133Y-15714D01*
X18139Y-15685D01*
X18225Y-15717D01*
X18335Y-15763D01*
X18348Y-15763D01*
X18359Y-15767D01*
X18479Y-15763D01*
X18599Y-15763D01*
X18611Y-15758D01*
X18623Y-15758D01*
X18824Y-15675D01*
X18826Y-15669D01*
X18843Y-15662D01*
X19030Y-15476D01*
X19038Y-15458D01*
X19043Y-15456D01*
X19085Y-15343D01*
X19131Y-15232D01*
X19131Y-15220D01*
X19136Y-15208D01*
X19136Y-16659D01*
X12558Y-16659D01*
X12558Y-14427D01*
X12553Y-14354D01*
X12553Y-14281D01*
X12546Y-14266D01*
X12545Y-14249D01*
X12502Y-14144D01*
X12496Y-14143D01*
X12485Y-14117D01*
X12442Y-14074D01*
X12484Y-14032D01*
X12495Y-14006D01*
X12502Y-14005D01*
X12525Y-13936D01*
X12553Y-13868D01*
X12553Y-13852D01*
X12558Y-13836D01*
X12553Y-13763D01*
X12553Y-13691D01*
X12546Y-13675D01*
X12545Y-13659D01*
X12502Y-13553D01*
X12496Y-13552D01*
X12485Y-13526D01*
X12442Y-13484D01*
X12484Y-13442D01*
X12495Y-13415D01*
X12502Y-13414D01*
X12525Y-13345D01*
X12553Y-13278D01*
X12553Y-13261D01*
X12558Y-13246D01*
X12558Y-9112D01*
X12553Y-9039D01*
X12553Y-8966D01*
X12546Y-8951D01*
X12545Y-8934D01*
X12502Y-8829D01*
X12496Y-8828D01*
X12485Y-8802D01*
X12442Y-8759D01*
X12484Y-8718D01*
X12495Y-8691D01*
X12502Y-8690D01*
X12525Y-8621D01*
X12553Y-8553D01*
X12553Y-8537D01*
X12558Y-8521D01*
X12553Y-8448D01*
X12553Y-8376D01*
X12546Y-8360D01*
X12545Y-8344D01*
X12502Y-8238D01*
X12496Y-8237D01*
X12485Y-8211D01*
X12442Y-8169D01*
X12484Y-8127D01*
X12495Y-8100D01*
X12502Y-8099D01*
X12525Y-8030D01*
X12553Y-7963D01*
X12553Y-7946D01*
X12558Y-7931D01*
X12553Y-7858D01*
X12553Y-7785D01*
X12546Y-7770D01*
X12545Y-7753D01*
X12502Y-7648D01*
X12496Y-7647D01*
X12485Y-7621D01*
X12442Y-7578D01*
X12484Y-7536D01*
X12495Y-7510D01*
X12502Y-7509D01*
X12525Y-7440D01*
X12553Y-7372D01*
X12553Y-7356D01*
X12558Y-7340D01*
X12553Y-7267D01*
X12553Y-7194D01*
X12546Y-7179D01*
X12545Y-7163D01*
X12502Y-7057D01*
X12496Y-7056D01*
X12485Y-7030D01*
X12442Y-6988D01*
X12484Y-6946D01*
X12495Y-6919D01*
X12502Y-6918D01*
X12525Y-6849D01*
X12553Y-6782D01*
X12553Y-6765D01*
X12558Y-6750D01*
X12553Y-6677D01*
X12553Y-6604D01*
X12546Y-6589D01*
X12545Y-6572D01*
X12502Y-6467D01*
X12496Y-6466D01*
X12485Y-6440D01*
X12359Y-6314D01*
X12333Y-6303D01*
X12332Y-6297D01*
X12262Y-6274D01*
X12195Y-6246D01*
X12179Y-6246D01*
X12163Y-6240D01*
X12090Y-6246D01*
X12017Y-6245D01*
X12002Y-6252D01*
X11986Y-6253D01*
X11880Y-6297D01*
X11879Y-6303D01*
X11853Y-6313D01*
X11811Y-6356D01*
X11769Y-6314D01*
X11742Y-6303D01*
X11741Y-6297D01*
X11672Y-6274D01*
X11605Y-6246D01*
X11588Y-6246D01*
X11572Y-6240D01*
X11500Y-6246D01*
X11427Y-6245D01*
X11411Y-6252D01*
X11395Y-6253D01*
X11290Y-6297D01*
X11288Y-6303D01*
X11262Y-6313D01*
X11137Y-6439D01*
X11126Y-6466D01*
X11119Y-6467D01*
X11096Y-6536D01*
X11068Y-6603D01*
X11068Y-6620D01*
X11063Y-6635D01*
X11068Y-6708D01*
X11068Y-6781D01*
X11075Y-6796D01*
X11076Y-6813D01*
X11119Y-6918D01*
X11125Y-6919D01*
X11136Y-6945D01*
X11179Y-6988D01*
X11137Y-7030D01*
X11126Y-7056D01*
X11119Y-7057D01*
X11096Y-7126D01*
X11068Y-7194D01*
X11068Y-7210D01*
X11063Y-7226D01*
X11068Y-7299D01*
X11068Y-7371D01*
X11075Y-7387D01*
X11076Y-7403D01*
X11119Y-7509D01*
X11125Y-7510D01*
X11136Y-7536D01*
X11179Y-7578D01*
X11137Y-7620D01*
X11126Y-7647D01*
X11119Y-7648D01*
X11096Y-7717D01*
X11068Y-7784D01*
X11068Y-7801D01*
X11063Y-7816D01*
X11068Y-7889D01*
X11068Y-7962D01*
X11075Y-7977D01*
X11076Y-7994D01*
X11119Y-8099D01*
X11125Y-8100D01*
X11136Y-8126D01*
X11179Y-8169D01*
X11137Y-8211D01*
X11126Y-8237D01*
X11119Y-8238D01*
X11096Y-8307D01*
X11068Y-8375D01*
X11068Y-8391D01*
X11063Y-8407D01*
X11068Y-8480D01*
X11068Y-8553D01*
X11075Y-8568D01*
X11076Y-8584D01*
X11119Y-8690D01*
X11125Y-8691D01*
X11136Y-8717D01*
X11179Y-8759D01*
X11137Y-8801D01*
X11126Y-8828D01*
X11119Y-8829D01*
X11096Y-8898D01*
X11068Y-8965D01*
X11068Y-8982D01*
X11063Y-8998D01*
X11068Y-9070D01*
X11068Y-9143D01*
X11075Y-9158D01*
X11076Y-9175D01*
X11119Y-9280D01*
X11125Y-9281D01*
X11136Y-9307D01*
X11262Y-9433D01*
X11288Y-9444D01*
X11290Y-9450D01*
X11359Y-9473D01*
X11426Y-9501D01*
X11442Y-9501D01*
X11458Y-9507D01*
X11531Y-9501D01*
X11604Y-9502D01*
X11619Y-9495D01*
X11635Y-9494D01*
X11741Y-9450D01*
X11742Y-9444D01*
X11768Y-9434D01*
X11810Y-9391D01*
X11852Y-9433D01*
X11879Y-9444D01*
X11880Y-9450D01*
X11949Y-9473D01*
X12017Y-9501D01*
X12033Y-9501D01*
X12049Y-9507D01*
X12121Y-9501D01*
X12194Y-9502D01*
X12210Y-9495D01*
X12226Y-9494D01*
X12332Y-9450D01*
X12333Y-9444D01*
X12359Y-9434D01*
X12484Y-9308D01*
X12495Y-9281D01*
X12502Y-9280D01*
X12525Y-9211D01*
X12553Y-9144D01*
X12553Y-9127D01*
X12558Y-9112D01*
X12558Y-13246D01*
X12553Y-13173D01*
X12553Y-13100D01*
X12546Y-13085D01*
X12545Y-13068D01*
X12502Y-12963D01*
X12496Y-12962D01*
X12485Y-12936D01*
X12478Y-12929D01*
X12478Y-11919D01*
X12478Y-10345D01*
X12474Y-10224D01*
X12474Y-10104D01*
X12469Y-10093D01*
X12469Y-10081D01*
X12386Y-9880D01*
X12380Y-9878D01*
X12373Y-9860D01*
X12187Y-9674D01*
X12169Y-9666D01*
X12167Y-9661D01*
X12054Y-9619D01*
X11943Y-9572D01*
X11931Y-9572D01*
X11919Y-9568D01*
X11799Y-9572D01*
X11679Y-9572D01*
X11668Y-9577D01*
X11656Y-9577D01*
X11454Y-9661D01*
X11452Y-9666D01*
X11435Y-9673D01*
X11248Y-9859D01*
X11241Y-9878D01*
X11235Y-9880D01*
X11193Y-9992D01*
X11147Y-10103D01*
X11147Y-10115D01*
X11143Y-10127D01*
X11147Y-10247D01*
X11147Y-10367D01*
X11152Y-10378D01*
X11152Y-10391D01*
X11235Y-10592D01*
X11241Y-10594D01*
X11248Y-10611D01*
X11434Y-10798D01*
X11452Y-10805D01*
X11454Y-10811D01*
X11567Y-10853D01*
X11678Y-10899D01*
X11690Y-10899D01*
X11702Y-10903D01*
X11822Y-10899D01*
X11942Y-10899D01*
X11953Y-10895D01*
X11965Y-10894D01*
X12167Y-10811D01*
X12169Y-10806D01*
X12186Y-10798D01*
X12373Y-10612D01*
X12380Y-10594D01*
X12386Y-10592D01*
X12428Y-10479D01*
X12474Y-10368D01*
X12474Y-10356D01*
X12478Y-10345D01*
X12478Y-11919D01*
X12474Y-11799D01*
X12474Y-11679D01*
X12469Y-11668D01*
X12469Y-11656D01*
X12386Y-11454D01*
X12380Y-11452D01*
X12373Y-11435D01*
X12187Y-11248D01*
X12169Y-11241D01*
X12167Y-11235D01*
X12054Y-11193D01*
X11943Y-11147D01*
X11931Y-11147D01*
X11919Y-11143D01*
X11799Y-11147D01*
X11679Y-11147D01*
X11668Y-11152D01*
X11656Y-11152D01*
X11454Y-11235D01*
X11452Y-11241D01*
X11435Y-11248D01*
X11248Y-11434D01*
X11241Y-11452D01*
X11235Y-11454D01*
X11193Y-11567D01*
X11147Y-11678D01*
X11147Y-11690D01*
X11143Y-11702D01*
X11147Y-11822D01*
X11147Y-11942D01*
X11152Y-11953D01*
X11152Y-11965D01*
X11235Y-12167D01*
X11241Y-12169D01*
X11248Y-12186D01*
X11434Y-12373D01*
X11452Y-12380D01*
X11454Y-12386D01*
X11567Y-12428D01*
X11678Y-12474D01*
X11690Y-12474D01*
X11702Y-12478D01*
X11822Y-12474D01*
X11942Y-12474D01*
X11953Y-12469D01*
X11965Y-12469D01*
X12167Y-12386D01*
X12169Y-12380D01*
X12186Y-12373D01*
X12373Y-12187D01*
X12380Y-12169D01*
X12386Y-12167D01*
X12428Y-12054D01*
X12474Y-11943D01*
X12474Y-11931D01*
X12478Y-11919D01*
X12478Y-12929D01*
X12359Y-12810D01*
X12333Y-12799D01*
X12332Y-12793D01*
X12262Y-12770D01*
X12195Y-12742D01*
X12179Y-12742D01*
X12163Y-12736D01*
X12090Y-12742D01*
X12017Y-12742D01*
X12002Y-12748D01*
X11986Y-12749D01*
X11880Y-12793D01*
X11879Y-12799D01*
X11853Y-12809D01*
X11811Y-12852D01*
X11769Y-12810D01*
X11742Y-12799D01*
X11741Y-12793D01*
X11672Y-12770D01*
X11605Y-12742D01*
X11588Y-12742D01*
X11572Y-12736D01*
X11500Y-12742D01*
X11427Y-12742D01*
X11411Y-12748D01*
X11395Y-12749D01*
X11290Y-12793D01*
X11288Y-12799D01*
X11262Y-12809D01*
X11137Y-12935D01*
X11126Y-12962D01*
X11119Y-12963D01*
X11096Y-13032D01*
X11068Y-13099D01*
X11068Y-13116D01*
X11063Y-13131D01*
X11068Y-13204D01*
X11068Y-13277D01*
X11075Y-13292D01*
X11076Y-13309D01*
X11119Y-13414D01*
X11125Y-13415D01*
X11136Y-13441D01*
X11179Y-13484D01*
X11137Y-13526D01*
X11126Y-13552D01*
X11119Y-13553D01*
X11096Y-13622D01*
X11068Y-13690D01*
X11068Y-13706D01*
X11063Y-13722D01*
X11068Y-13795D01*
X11068Y-13868D01*
X11075Y-13883D01*
X11076Y-13899D01*
X11119Y-14005D01*
X11125Y-14006D01*
X11136Y-14032D01*
X11179Y-14074D01*
X11137Y-14116D01*
X11126Y-14143D01*
X11119Y-14144D01*
X11096Y-14213D01*
X11068Y-14280D01*
X11068Y-14297D01*
X11063Y-14312D01*
X11068Y-14385D01*
X11068Y-14458D01*
X11075Y-14473D01*
X11076Y-14490D01*
X11119Y-14595D01*
X11125Y-14596D01*
X11136Y-14622D01*
X11262Y-14748D01*
X11288Y-14759D01*
X11290Y-14765D01*
X11359Y-14788D01*
X11426Y-14816D01*
X11442Y-14816D01*
X11458Y-14822D01*
X11531Y-14816D01*
X11604Y-14817D01*
X11619Y-14810D01*
X11635Y-14809D01*
X11741Y-14765D01*
X11742Y-14759D01*
X11768Y-14749D01*
X11810Y-14706D01*
X11852Y-14748D01*
X11879Y-14759D01*
X11880Y-14765D01*
X11949Y-14788D01*
X12017Y-14816D01*
X12033Y-14816D01*
X12049Y-14822D01*
X12121Y-14816D01*
X12194Y-14817D01*
X12210Y-14810D01*
X12226Y-14809D01*
X12332Y-14765D01*
X12333Y-14759D01*
X12359Y-14749D01*
X12484Y-14623D01*
X12495Y-14596D01*
X12502Y-14595D01*
X12525Y-14526D01*
X12553Y-14459D01*
X12553Y-14442D01*
X12558Y-14427D01*
X12558Y-16659D01*
X12478Y-16659D01*
X12478Y-15856D01*
X12474Y-15736D01*
X12474Y-15616D01*
X12469Y-15605D01*
X12469Y-15593D01*
X12386Y-15392D01*
X12380Y-15389D01*
X12373Y-15372D01*
X12187Y-15185D01*
X12169Y-15178D01*
X12167Y-15172D01*
X12054Y-15130D01*
X11943Y-15084D01*
X11931Y-15084D01*
X11919Y-15080D01*
X11799Y-15084D01*
X11679Y-15084D01*
X11668Y-15089D01*
X11656Y-15089D01*
X11454Y-15172D01*
X11452Y-15178D01*
X11435Y-15185D01*
X11248Y-15371D01*
X11241Y-15389D01*
X11235Y-15392D01*
X11193Y-15504D01*
X11147Y-15615D01*
X11147Y-15627D01*
X11143Y-15639D01*
X11147Y-15759D01*
X11147Y-15879D01*
X11152Y-15890D01*
X11152Y-15902D01*
X11235Y-16104D01*
X11241Y-16106D01*
X11248Y-16123D01*
X11434Y-16310D01*
X11452Y-16317D01*
X11454Y-16323D01*
X11567Y-16365D01*
X11678Y-16411D01*
X11690Y-16411D01*
X11702Y-16415D01*
X11822Y-16411D01*
X11942Y-16411D01*
X11953Y-16406D01*
X11965Y-16406D01*
X12167Y-16323D01*
X12169Y-16317D01*
X12186Y-16310D01*
X12373Y-16124D01*
X12380Y-16106D01*
X12386Y-16104D01*
X12428Y-15991D01*
X12474Y-15880D01*
X12474Y-15868D01*
X12478Y-15856D01*
X12478Y-16659D01*
X10025Y-16659D01*
X10025Y-15396D01*
X9945Y-15203D01*
X9797Y-15055D01*
X9664Y-14999D01*
X9797Y-14945D01*
X9944Y-14797D01*
X10024Y-14604D01*
X10025Y-14396D01*
X9945Y-14203D01*
X9797Y-14055D01*
X9664Y-13999D01*
X9797Y-13945D01*
X9944Y-13797D01*
X10024Y-13604D01*
X10025Y-13396D01*
X9945Y-13203D01*
X9797Y-13055D01*
X9664Y-12999D01*
X9797Y-12945D01*
X9944Y-12797D01*
X10024Y-12604D01*
X10025Y-12396D01*
X10025Y-8396D01*
X9945Y-8203D01*
X9797Y-8055D01*
X9664Y-7999D01*
X9797Y-7945D01*
X9944Y-7797D01*
X10024Y-7604D01*
X10025Y-7396D01*
X9945Y-7203D01*
X9797Y-7055D01*
X9725Y-7025D01*
X9824Y-7025D01*
X9916Y-6987D01*
X9986Y-6916D01*
X10024Y-6824D01*
X10025Y-6725D01*
X10025Y-6175D01*
X9987Y-6083D01*
X9916Y-6013D01*
X9824Y-5975D01*
X9725Y-5974D01*
X9175Y-5974D01*
X9083Y-6012D01*
X9013Y-6083D01*
X8975Y-6175D01*
X8974Y-6274D01*
X8974Y-6824D01*
X9012Y-6916D01*
X9083Y-6986D01*
X9175Y-7024D01*
X9274Y-7025D01*
X9274Y-7025D01*
X9203Y-7054D01*
X9055Y-7202D01*
X8975Y-7395D01*
X8974Y-7603D01*
X9054Y-7797D01*
X9202Y-7944D01*
X9335Y-8000D01*
X9203Y-8054D01*
X9055Y-8202D01*
X8975Y-8395D01*
X8974Y-8603D01*
X9054Y-8797D01*
X9202Y-8944D01*
X9395Y-9024D01*
X9603Y-9025D01*
X9797Y-8945D01*
X9944Y-8797D01*
X10024Y-8604D01*
X10025Y-8396D01*
X10025Y-12396D01*
X9945Y-12203D01*
X9797Y-12055D01*
X9725Y-12025D01*
X9824Y-12025D01*
X9916Y-11987D01*
X9986Y-11916D01*
X10024Y-11824D01*
X10025Y-11725D01*
X10025Y-11175D01*
X9987Y-11083D01*
X9916Y-11013D01*
X9824Y-10975D01*
X9725Y-10974D01*
X9175Y-10974D01*
X9083Y-11012D01*
X9013Y-11083D01*
X8975Y-11175D01*
X8974Y-11274D01*
X8974Y-11824D01*
X9012Y-11916D01*
X9083Y-11986D01*
X9175Y-12024D01*
X9274Y-12025D01*
X9274Y-12025D01*
X9203Y-12054D01*
X9055Y-12202D01*
X8975Y-12395D01*
X8974Y-12603D01*
X9054Y-12797D01*
X9202Y-12944D01*
X9335Y-13000D01*
X9203Y-13054D01*
X9055Y-13202D01*
X8975Y-13395D01*
X8974Y-13603D01*
X9054Y-13797D01*
X9202Y-13944D01*
X9335Y-14000D01*
X9203Y-14054D01*
X9055Y-14202D01*
X8975Y-14395D01*
X8974Y-14603D01*
X9054Y-14797D01*
X9202Y-14944D01*
X9335Y-15000D01*
X9203Y-15054D01*
X9055Y-15202D01*
X8975Y-15395D01*
X8974Y-15603D01*
X9054Y-15797D01*
X9202Y-15944D01*
X9395Y-16024D01*
X9603Y-16025D01*
X9797Y-15945D01*
X9944Y-15797D01*
X10024Y-15604D01*
X10025Y-15396D01*
X10025Y-16659D01*
X8147Y-16659D01*
X8147Y-15966D01*
X8147Y-11241D01*
X8147Y-9572D01*
X8143Y-9456D01*
X8143Y-9341D01*
X8138Y-9329D01*
X8138Y-9316D01*
X8058Y-9124D01*
X8053Y-9122D01*
X8046Y-9104D01*
X7865Y-8923D01*
X7846Y-8915D01*
X7844Y-8909D01*
X7735Y-8869D01*
X7628Y-8824D01*
X7615Y-8824D01*
X7604Y-8820D01*
X7488Y-8824D01*
X7372Y-8824D01*
X7360Y-8829D01*
X7348Y-8829D01*
X7155Y-8909D01*
X7153Y-8915D01*
X7135Y-8922D01*
X6954Y-9103D01*
X6946Y-9122D01*
X6941Y-9124D01*
X6900Y-9232D01*
X6856Y-9339D01*
X6856Y-9352D01*
X6852Y-9364D01*
X6856Y-9480D01*
X6856Y-9595D01*
X6861Y-9607D01*
X6861Y-9620D01*
X6941Y-9812D01*
X6946Y-9814D01*
X6953Y-9832D01*
X7134Y-10013D01*
X7153Y-10021D01*
X7155Y-10027D01*
X7264Y-10067D01*
X7371Y-10112D01*
X7384Y-10112D01*
X7395Y-10116D01*
X7511Y-10112D01*
X7627Y-10112D01*
X7639Y-10107D01*
X7651Y-10107D01*
X7844Y-10027D01*
X7846Y-10021D01*
X7864Y-10014D01*
X8045Y-9833D01*
X8053Y-9814D01*
X8058Y-9812D01*
X8099Y-9704D01*
X8143Y-9597D01*
X8143Y-9584D01*
X8147Y-9572D01*
X8147Y-11241D01*
X8143Y-11126D01*
X8143Y-11010D01*
X8138Y-10998D01*
X8138Y-10986D01*
X8058Y-10793D01*
X8053Y-10791D01*
X8046Y-10773D01*
X7865Y-10592D01*
X7846Y-10584D01*
X7844Y-10578D01*
X7735Y-10538D01*
X7628Y-10494D01*
X7615Y-10494D01*
X7604Y-10489D01*
X7488Y-10494D01*
X7372Y-10493D01*
X7360Y-10498D01*
X7348Y-10499D01*
X7155Y-10578D01*
X7153Y-10584D01*
X7135Y-10591D01*
X6954Y-10772D01*
X6946Y-10791D01*
X6941Y-10793D01*
X6900Y-10902D01*
X6856Y-11009D01*
X6856Y-11021D01*
X6852Y-11033D01*
X6856Y-11149D01*
X6856Y-11265D01*
X6861Y-11276D01*
X6861Y-11289D01*
X6941Y-11481D01*
X6946Y-11483D01*
X6953Y-11501D01*
X7134Y-11683D01*
X7153Y-11690D01*
X7155Y-11696D01*
X7264Y-11736D01*
X7371Y-11781D01*
X7384Y-11781D01*
X7395Y-11785D01*
X7511Y-11781D01*
X7627Y-11781D01*
X7639Y-11776D01*
X7651Y-11776D01*
X7844Y-11696D01*
X7846Y-11691D01*
X7864Y-11683D01*
X8045Y-11502D01*
X8053Y-11484D01*
X8058Y-11481D01*
X8099Y-11373D01*
X8143Y-11266D01*
X8143Y-11253D01*
X8147Y-11241D01*
X8147Y-15966D01*
X8143Y-15850D01*
X8143Y-15734D01*
X8138Y-15723D01*
X8138Y-15710D01*
X8058Y-15518D01*
X8053Y-15516D01*
X8046Y-15498D01*
X7865Y-15316D01*
X7846Y-15309D01*
X7844Y-15303D01*
X7735Y-15263D01*
X7628Y-15218D01*
X7615Y-15218D01*
X7604Y-15214D01*
X7488Y-15218D01*
X7372Y-15218D01*
X7360Y-15223D01*
X7348Y-15223D01*
X7155Y-15303D01*
X7153Y-15308D01*
X7135Y-15316D01*
X6954Y-15497D01*
X6946Y-15515D01*
X6941Y-15518D01*
X6900Y-15626D01*
X6856Y-15733D01*
X6856Y-15746D01*
X6852Y-15758D01*
X6856Y-15873D01*
X6856Y-15989D01*
X6861Y-16001D01*
X6861Y-16013D01*
X6941Y-16206D01*
X6946Y-16208D01*
X6953Y-16226D01*
X7134Y-16407D01*
X7153Y-16415D01*
X7155Y-16421D01*
X7264Y-16461D01*
X7371Y-16505D01*
X7384Y-16505D01*
X7395Y-16510D01*
X7511Y-16505D01*
X7627Y-16506D01*
X7639Y-16501D01*
X7651Y-16500D01*
X7844Y-16421D01*
X7846Y-16415D01*
X7864Y-16408D01*
X8045Y-16227D01*
X8053Y-16208D01*
X8058Y-16206D01*
X8099Y-16097D01*
X8143Y-15990D01*
X8143Y-15978D01*
X8147Y-15966D01*
X8147Y-16659D01*
X4994Y-16659D01*
X4994Y-15870D01*
X5012Y-15916D01*
X5083Y-15986D01*
X5175Y-16024D01*
X5274Y-16025D01*
X5824Y-16025D01*
X5916Y-15987D01*
X5986Y-15916D01*
X6024Y-15824D01*
X6025Y-15725D01*
X6025Y-15175D01*
X5987Y-15083D01*
X5916Y-15013D01*
X5824Y-14975D01*
X5725Y-14974D01*
X5725Y-14974D01*
X5797Y-14945D01*
X5944Y-14797D01*
X6024Y-14604D01*
X6025Y-14396D01*
X5945Y-14203D01*
X5797Y-14055D01*
X5664Y-13999D01*
X5797Y-13945D01*
X5944Y-13797D01*
X6024Y-13604D01*
X6025Y-13396D01*
X5945Y-13203D01*
X5797Y-13055D01*
X5664Y-12999D01*
X5797Y-12945D01*
X5944Y-12797D01*
X6024Y-12604D01*
X6025Y-12396D01*
X5945Y-12203D01*
X5797Y-12055D01*
X5664Y-11999D01*
X5797Y-11945D01*
X5944Y-11797D01*
X6024Y-11604D01*
X6025Y-11396D01*
X5945Y-11203D01*
X5797Y-11055D01*
X5604Y-10975D01*
X5396Y-10974D01*
X5203Y-11054D01*
X5055Y-11202D01*
X4994Y-11349D01*
X4994Y-8870D01*
X5012Y-8916D01*
X5083Y-8986D01*
X5175Y-9024D01*
X5274Y-9025D01*
X5824Y-9025D01*
X5916Y-8987D01*
X5986Y-8916D01*
X6024Y-8824D01*
X6025Y-8725D01*
X6025Y-8175D01*
X5987Y-8083D01*
X5916Y-8013D01*
X5824Y-7975D01*
X5725Y-7974D01*
X5725Y-7974D01*
X5797Y-7945D01*
X5944Y-7797D01*
X6024Y-7604D01*
X6025Y-7396D01*
X5945Y-7203D01*
X5797Y-7055D01*
X5664Y-6999D01*
X5797Y-6945D01*
X5944Y-6797D01*
X6024Y-6604D01*
X6025Y-6396D01*
X5945Y-6203D01*
X5797Y-6055D01*
X5604Y-5975D01*
X5396Y-5974D01*
X5203Y-6054D01*
X5055Y-6202D01*
X4994Y-6349D01*
X4994Y-4994D01*
X7127Y-4994D01*
X6954Y-5166D01*
X6946Y-5185D01*
X6941Y-5187D01*
X6900Y-5295D01*
X6856Y-5402D01*
X6856Y-5415D01*
X6852Y-5427D01*
X6856Y-5543D01*
X6856Y-5658D01*
X6861Y-5670D01*
X6861Y-5683D01*
X6941Y-5875D01*
X6946Y-5877D01*
X6953Y-5895D01*
X7134Y-6076D01*
X7153Y-6084D01*
X7155Y-6090D01*
X7264Y-6130D01*
X7371Y-6175D01*
X7384Y-6175D01*
X7395Y-6179D01*
X7511Y-6175D01*
X7627Y-6175D01*
X7639Y-6170D01*
X7651Y-6170D01*
X7844Y-6090D01*
X7846Y-6084D01*
X7864Y-6077D01*
X8045Y-5896D01*
X8053Y-5877D01*
X8058Y-5875D01*
X8099Y-5767D01*
X8143Y-5660D01*
X8143Y-5647D01*
X8147Y-5635D01*
X8143Y-5519D01*
X8143Y-5404D01*
X8138Y-5392D01*
X8138Y-5379D01*
X8058Y-5187D01*
X8053Y-5185D01*
X8046Y-5167D01*
X7873Y-4994D01*
X11390Y-4994D01*
X11248Y-5135D01*
X11241Y-5153D01*
X11235Y-5155D01*
X11193Y-5268D01*
X11147Y-5379D01*
X11147Y-5391D01*
X11143Y-5402D01*
X11147Y-5523D01*
X11147Y-5643D01*
X11152Y-5654D01*
X11152Y-5666D01*
X11235Y-5867D01*
X11241Y-5869D01*
X11248Y-5887D01*
X11434Y-6073D01*
X11452Y-6081D01*
X11454Y-6086D01*
X11567Y-6129D01*
X11678Y-6175D01*
X11690Y-6175D01*
X11702Y-6179D01*
X11822Y-6175D01*
X11942Y-6175D01*
X11953Y-6170D01*
X11965Y-6170D01*
X12167Y-6086D01*
X12169Y-6081D01*
X12186Y-6074D01*
X12373Y-5888D01*
X12380Y-5869D01*
X12386Y-5867D01*
X12428Y-5755D01*
X12474Y-5644D01*
X12474Y-5632D01*
X12478Y-5620D01*
X12474Y-5500D01*
X12474Y-5380D01*
X12469Y-5369D01*
X12469Y-5356D01*
X12386Y-5155D01*
X12380Y-5153D01*
X12373Y-5136D01*
X12231Y-4994D01*
X24139Y-4994D01*
X24139Y-8410D01*
X24133Y-8404D01*
X24114Y-8396D01*
X24112Y-8391D01*
X24004Y-8350D01*
X23897Y-8306D01*
X23884Y-8306D01*
X23872Y-8302D01*
X23756Y-8306D01*
X23641Y-8306D01*
X23629Y-8311D01*
X23616Y-8311D01*
X23424Y-8391D01*
X23422Y-8396D01*
X23404Y-8403D01*
X23376Y-8432D01*
X23376Y-7009D01*
X23292Y-6807D01*
X23137Y-6652D01*
X23056Y-6618D01*
X23137Y-6585D01*
X23291Y-6430D01*
X23375Y-6228D01*
X23376Y-6009D01*
X23292Y-5807D01*
X23137Y-5652D01*
X22935Y-5568D01*
X22717Y-5568D01*
X22514Y-5652D01*
X22359Y-5806D01*
X22326Y-5888D01*
X22292Y-5807D01*
X22137Y-5652D01*
X21935Y-5568D01*
X21717Y-5568D01*
X21514Y-5652D01*
X21359Y-5806D01*
X21326Y-5888D01*
X21292Y-5807D01*
X21137Y-5652D01*
X20935Y-5568D01*
X20717Y-5568D01*
X20514Y-5652D01*
X20359Y-5806D01*
X20276Y-6009D01*
X20275Y-6227D01*
X20359Y-6430D01*
X20498Y-6568D01*
X20476Y-6568D01*
X20384Y-6606D01*
X20314Y-6677D01*
X20276Y-6768D01*
X20275Y-6868D01*
X20275Y-7468D01*
X20313Y-7560D01*
X20384Y-7630D01*
X20476Y-7668D01*
X20575Y-7668D01*
X21175Y-7668D01*
X21267Y-7630D01*
X21337Y-7560D01*
X21375Y-7468D01*
X21375Y-7446D01*
X21514Y-7584D01*
X21716Y-7668D01*
X21934Y-7668D01*
X22137Y-7585D01*
X22291Y-7430D01*
X22325Y-7349D01*
X22359Y-7430D01*
X22514Y-7584D01*
X22716Y-7668D01*
X22934Y-7668D01*
X23137Y-7585D01*
X23291Y-7430D01*
X23375Y-7228D01*
X23376Y-7009D01*
X23376Y-8432D01*
X23223Y-8584D01*
X23215Y-8603D01*
X23209Y-8605D01*
X23169Y-8714D01*
X23124Y-8821D01*
X23124Y-8834D01*
X23120Y-8845D01*
X23124Y-8961D01*
X23124Y-9077D01*
X23129Y-9089D01*
X23129Y-9101D01*
X23209Y-9294D01*
X23215Y-9296D01*
X23222Y-9314D01*
X23403Y-9495D01*
X23422Y-9503D01*
X23424Y-9508D01*
X23532Y-9549D01*
X23639Y-9593D01*
X23652Y-9593D01*
X23664Y-9597D01*
X23780Y-9593D01*
X23895Y-9593D01*
X23907Y-9588D01*
X23920Y-9588D01*
X24112Y-9508D01*
X24114Y-9503D01*
X24132Y-9496D01*
X24139Y-9488D01*
X24139Y-14613D01*
X24129Y-14609D01*
X24127Y-14603D01*
X24015Y-14561D01*
X23904Y-14515D01*
X23891Y-14515D01*
X23880Y-14511D01*
X23760Y-14515D01*
X23640Y-14515D01*
X23628Y-14519D01*
X23616Y-14520D01*
X23415Y-14603D01*
X23413Y-14608D01*
X23396Y-14616D01*
X23303Y-14708D01*
X23303Y-12719D01*
X23219Y-12517D01*
X23065Y-12362D01*
X22983Y-12328D01*
X23064Y-12295D01*
X23219Y-12140D01*
X23303Y-11938D01*
X23303Y-11719D01*
X23219Y-11517D01*
X23065Y-11362D01*
X22863Y-11278D01*
X22644Y-11278D01*
X22442Y-11362D01*
X22287Y-11516D01*
X22253Y-11598D01*
X22219Y-11517D01*
X22065Y-11362D01*
X21863Y-11278D01*
X21644Y-11278D01*
X21442Y-11362D01*
X21287Y-11516D01*
X21253Y-11598D01*
X21219Y-11517D01*
X21065Y-11362D01*
X20863Y-11278D01*
X20644Y-11278D01*
X20479Y-11346D01*
X20479Y-9054D01*
X20475Y-8938D01*
X20475Y-8822D01*
X20470Y-8810D01*
X20470Y-8798D01*
X20390Y-8605D01*
X20384Y-8603D01*
X20377Y-8585D01*
X20196Y-8404D01*
X20177Y-8396D01*
X20175Y-8391D01*
X20067Y-8350D01*
X19960Y-8306D01*
X19947Y-8306D01*
X19935Y-8302D01*
X19819Y-8306D01*
X19704Y-8306D01*
X19692Y-8311D01*
X19679Y-8311D01*
X19487Y-8391D01*
X19485Y-8396D01*
X19467Y-8403D01*
X19286Y-8584D01*
X19278Y-8603D01*
X19272Y-8605D01*
X19232Y-8714D01*
X19187Y-8821D01*
X19187Y-8834D01*
X19183Y-8845D01*
X19187Y-8961D01*
X19187Y-9077D01*
X19192Y-9089D01*
X19192Y-9101D01*
X19272Y-9294D01*
X19278Y-9296D01*
X19285Y-9314D01*
X19466Y-9495D01*
X19485Y-9503D01*
X19487Y-9508D01*
X19595Y-9549D01*
X19702Y-9593D01*
X19715Y-9593D01*
X19727Y-9597D01*
X19843Y-9593D01*
X19958Y-9593D01*
X19970Y-9588D01*
X19983Y-9588D01*
X20175Y-9508D01*
X20177Y-9503D01*
X20195Y-9496D01*
X20376Y-9315D01*
X20384Y-9296D01*
X20390Y-9294D01*
X20430Y-9185D01*
X20475Y-9078D01*
X20475Y-9065D01*
X20479Y-9054D01*
X20479Y-11346D01*
X20442Y-11362D01*
X20287Y-11516D01*
X20203Y-11718D01*
X20203Y-11937D01*
X20286Y-12139D01*
X20425Y-12278D01*
X20403Y-12278D01*
X20311Y-12316D01*
X20241Y-12386D01*
X20203Y-12478D01*
X20203Y-12578D01*
X20203Y-13178D01*
X20241Y-13270D01*
X20311Y-13340D01*
X20403Y-13378D01*
X20502Y-13378D01*
X21102Y-13378D01*
X21194Y-13340D01*
X21264Y-13270D01*
X21303Y-13178D01*
X21303Y-13156D01*
X21441Y-13294D01*
X21643Y-13378D01*
X21862Y-13378D01*
X21953Y-13341D01*
X21953Y-13604D01*
X21478Y-14078D01*
X21103Y-14078D01*
X20988Y-14101D01*
X20891Y-14166D01*
X20491Y-14566D01*
X20425Y-14663D01*
X20403Y-14778D01*
X20403Y-14817D01*
X20397Y-14803D01*
X20210Y-14616D01*
X20192Y-14609D01*
X20190Y-14603D01*
X20078Y-14561D01*
X19967Y-14515D01*
X19954Y-14515D01*
X19943Y-14511D01*
X19823Y-14515D01*
X19703Y-14515D01*
X19691Y-14519D01*
X19679Y-14520D01*
X19478Y-14603D01*
X19476Y-14608D01*
X19459Y-14616D01*
X19272Y-14802D01*
X19265Y-14820D01*
X19259Y-14822D01*
X19217Y-14935D01*
X19171Y-15045D01*
X19171Y-9052D01*
X19167Y-8937D01*
X19167Y-8821D01*
X19162Y-8809D01*
X19162Y-8797D01*
X19082Y-8604D01*
X19077Y-8602D01*
X19069Y-8584D01*
X18888Y-8403D01*
X18869Y-8395D01*
X18867Y-8390D01*
X18759Y-8349D01*
X18711Y-8329D01*
X18711Y-6977D01*
X18627Y-6775D01*
X18473Y-6620D01*
X18391Y-6586D01*
X18472Y-6553D01*
X18627Y-6398D01*
X18711Y-6196D01*
X18711Y-5977D01*
X18627Y-5775D01*
X18473Y-5620D01*
X18271Y-5536D01*
X18052Y-5536D01*
X18040Y-5541D01*
X17836Y-5337D01*
X17739Y-5272D01*
X17624Y-5250D01*
X15856Y-5250D01*
X15741Y-5272D01*
X15644Y-5337D01*
X15444Y-5537D01*
X15407Y-5593D01*
X15271Y-5536D01*
X15052Y-5536D01*
X14850Y-5620D01*
X14695Y-5774D01*
X14661Y-5856D01*
X14627Y-5775D01*
X14473Y-5620D01*
X14271Y-5536D01*
X14052Y-5536D01*
X13850Y-5620D01*
X13695Y-5774D01*
X13611Y-5976D01*
X13611Y-6195D01*
X13694Y-6397D01*
X13833Y-6536D01*
X13811Y-6536D01*
X13719Y-6574D01*
X13649Y-6644D01*
X13611Y-6736D01*
X13611Y-6836D01*
X13611Y-7436D01*
X13649Y-7528D01*
X13719Y-7598D01*
X13811Y-7636D01*
X13910Y-7636D01*
X14510Y-7636D01*
X14602Y-7598D01*
X14673Y-7528D01*
X14711Y-7436D01*
X14711Y-7414D01*
X14849Y-7552D01*
X15051Y-7636D01*
X15270Y-7636D01*
X15356Y-7601D01*
X15356Y-8475D01*
X15257Y-8575D01*
X15172Y-8574D01*
X15015Y-8639D01*
X14896Y-8758D01*
X14831Y-8915D01*
X14831Y-9084D01*
X14895Y-9240D01*
X15015Y-9360D01*
X15171Y-9424D01*
X15340Y-9425D01*
X15496Y-9360D01*
X15616Y-9241D01*
X15681Y-9084D01*
X15681Y-8999D01*
X15868Y-8812D01*
X15868Y-8812D01*
X15933Y-8714D01*
X15956Y-8600D01*
X15956Y-8600D01*
X15956Y-7596D01*
X16051Y-7636D01*
X16270Y-7636D01*
X16356Y-7601D01*
X16356Y-8574D01*
X16322Y-8574D01*
X16165Y-8639D01*
X16046Y-8758D01*
X15981Y-8915D01*
X15981Y-9084D01*
X16045Y-9240D01*
X16165Y-9360D01*
X16321Y-9424D01*
X16490Y-9425D01*
X16646Y-9360D01*
X16756Y-9251D01*
X16815Y-9310D01*
X16971Y-9374D01*
X17140Y-9375D01*
X17296Y-9310D01*
X17416Y-9191D01*
X17481Y-9034D01*
X17481Y-8865D01*
X17461Y-8817D01*
X17461Y-7557D01*
X17472Y-7553D01*
X17627Y-7398D01*
X17661Y-7316D01*
X17694Y-7397D01*
X17849Y-7552D01*
X18051Y-7636D01*
X18270Y-7636D01*
X18472Y-7553D01*
X18627Y-7398D01*
X18711Y-7196D01*
X18711Y-6977D01*
X18711Y-8329D01*
X18652Y-8305D01*
X18639Y-8305D01*
X18627Y-8300D01*
X18511Y-8305D01*
X18396Y-8305D01*
X18384Y-8309D01*
X18371Y-8310D01*
X18179Y-8390D01*
X18177Y-8395D01*
X18159Y-8402D01*
X17978Y-8583D01*
X17970Y-8602D01*
X17964Y-8604D01*
X17924Y-8713D01*
X17880Y-8820D01*
X17880Y-8832D01*
X17875Y-8844D01*
X17879Y-8960D01*
X17879Y-9076D01*
X17884Y-9087D01*
X17885Y-9100D01*
X17964Y-9293D01*
X17970Y-9295D01*
X17977Y-9312D01*
X18158Y-9494D01*
X18177Y-9502D01*
X18179Y-9507D01*
X18288Y-9547D01*
X18395Y-9592D01*
X18407Y-9592D01*
X18419Y-9596D01*
X18535Y-9592D01*
X18651Y-9592D01*
X18662Y-9587D01*
X18675Y-9587D01*
X18867Y-9507D01*
X18869Y-9502D01*
X18887Y-9494D01*
X19069Y-9313D01*
X19076Y-9295D01*
X19082Y-9293D01*
X19122Y-9184D01*
X19167Y-9077D01*
X19167Y-9064D01*
X19171Y-9052D01*
X19171Y-15045D01*
X19171Y-15046D01*
X19171Y-15058D01*
X19167Y-15069D01*
X19171Y-15189D01*
X19171Y-15310D01*
X19175Y-15321D01*
X19176Y-15333D01*
X19259Y-15534D01*
X19264Y-15536D01*
X19271Y-15554D01*
X19458Y-15740D01*
X19476Y-15748D01*
X19478Y-15753D01*
X19591Y-15795D01*
X19702Y-15842D01*
X19714Y-15842D01*
X19725Y-15846D01*
X19845Y-15842D01*
X19966Y-15842D01*
X19977Y-15837D01*
X19989Y-15837D01*
X20190Y-15753D01*
X20192Y-15748D01*
X20209Y-15741D01*
X20396Y-15555D01*
X20404Y-15536D01*
X20409Y-15534D01*
X20451Y-15422D01*
X20497Y-15311D01*
X20497Y-15299D01*
X20502Y-15287D01*
X20498Y-15184D01*
X20765Y-15451D01*
X20765Y-15562D01*
X20833Y-15726D01*
X20959Y-15852D01*
X21123Y-15920D01*
X21301Y-15920D01*
X21465Y-15853D01*
X21507Y-15810D01*
X21549Y-15852D01*
X21713Y-15920D01*
X21891Y-15920D01*
X22055Y-15853D01*
X22098Y-15810D01*
X22140Y-15852D01*
X22304Y-15920D01*
X22482Y-15920D01*
X22646Y-15853D01*
X22772Y-15727D01*
X22840Y-15563D01*
X22840Y-15385D01*
X22772Y-15221D01*
X22730Y-15178D01*
X22772Y-15136D01*
X22840Y-14972D01*
X22840Y-14794D01*
X22772Y-14630D01*
X22647Y-14504D01*
X22482Y-14436D01*
X22305Y-14436D01*
X22140Y-14504D01*
X22098Y-14546D01*
X22056Y-14504D01*
X21946Y-14459D01*
X22465Y-13940D01*
X22465Y-13940D01*
X22530Y-13843D01*
X22553Y-13728D01*
X22553Y-13728D01*
X22553Y-13341D01*
X22643Y-13378D01*
X22862Y-13378D01*
X23064Y-13295D01*
X23219Y-13140D01*
X23303Y-12938D01*
X23303Y-12719D01*
X23303Y-14708D01*
X23209Y-14802D01*
X23202Y-14820D01*
X23196Y-14822D01*
X23154Y-14935D01*
X23108Y-15046D01*
X23108Y-15058D01*
X23104Y-15069D01*
X23108Y-15189D01*
X23108Y-15310D01*
X23112Y-15321D01*
X23113Y-15333D01*
X23196Y-15534D01*
X23201Y-15536D01*
X23208Y-15554D01*
X23395Y-15740D01*
X23413Y-15748D01*
X23415Y-15753D01*
X23528Y-15795D01*
X23639Y-15842D01*
X23651Y-15842D01*
X23662Y-15846D01*
X23782Y-15842D01*
X23903Y-15842D01*
X23914Y-15837D01*
X23926Y-15837D01*
X24127Y-15753D01*
X24129Y-15748D01*
X24139Y-15744D01*
X24139Y-16659D01*
M02*
